<?xml version="1.0" standalone="no"?>
<!DOCTYPE svg PUBLIC "-//W3C//DTD SVG 20010904//EN"
 "http://www.w3.org/TR/2001/REC-SVG-20010904/DTD/svg10.dtd">
<svg
  xmlns="http://www.w3.org/2000/svg"
  version="1"
  viewBox="0 0 3204.000000 800.000000"
  style="background: white"
>
  <metadata>
    Created by potrace 1.16, written by Peter Selinger
    2001-2019
  </metadata>
  <g
    transform="translate(0.000000,800.000000) scale(0.100000,-0.100000)"
    fill="#1B8158"
    stroke="none"
  >
    <path
      d="M0 4000 l0 -4000 16020 0 16020 0 0 4000 0 4000 -16020 0 -16020 0 0 -4000z m16395 242 l29 -32 -89 -90 c-49 -50 -93 -89 -96 -88 -4 2 -305 311 -669 688 -364 377 -665 685 -669 685 -3 0 -283 -286 -620 -635 -337 -349 -638 -660 -668 -690 l-55 -55 -89 94 -89 94 63 66 c34 36 376 391 760 788 l698 722 732 -758 c403 -416 745 -772 762 -789z m-13243 -87 c252 -594 458 -1081 458 -1082 0 -2 -55 -3 -123 -3 l-122 0 -141 333 -141 332 -479 2 -479 3 -140 -333 -141 -332 -123 -3 c-115 -2 -123 -1 -117 15 4 10 210 498 459 1086 l452 1068 89 -3 90 -3 458 -1080z m2114 1065 c204 -52 363 -176 443 -345 32 -67 47 -128 56 -227 l7 -68 -120 0 -120 0 -6 68 c-19 188 -175 330 -387 352 -96 9 -224 -1 -289 -25 -109 -39 -204 -127 -241 -224 -28 -73 -23 -185 10 -249 30 -58 95 -127 148 -159 85 -50 154 -64 358 -73 162 -7 202 -12 272 -34 212 -68 372 -246 419 -466 52 -245 -89 -503 -341 -625 -133 -65 -186 -75 -419 -75 -232 0 -284 9 -421 75 -157 75 -277 209 -324 360 -18 59 -26 128 -23 213 l2 42 118 0 118 0 0 -87 c-1 -74 3 -96 24 -138 49 -100 162 -184 290 -216 35 -9 114 -13 220 -13 142 0 175 3 237 22 330 102 393 455 113 634 -71 46 -156 67 -293 73 -170 8 -291 24 -354 46 -120 41 -287 187 -351 307 -176 330 29 728 428 831 108 28 317 29 426 1z m2350 0 c204 -52 363 -176 443 -345 32 -67 47 -128 56 -227 l7 -68 -120 0 -120 0 -6 68 c-19 188 -175 330 -387 352 -96 9 -224 -1 -289 -25 -109 -39 -204 -127 -241 -224 -28 -73 -23 -185 10 -249 30 -58 95 -127 148 -159 85 -50 154 -64 358 -73 162 -7 202 -12 272 -34 212 -68 372 -246 419 -466 52 -245 -89 -503 -341 -625 -133 -65 -186 -75 -419 -75 -232 0 -284 9 -421 75 -157 75 -277 209 -324 360 -18 59 -26 128 -23 213 l2 42 118 0 118 0 0 -87 c-1 -74 3 -96 24 -138 49 -100 162 -184 290 -216 35 -9 114 -13 220 -13 142 0 175 3 237 22 330 102 393 455 113 634 -71 46 -156 67 -293 73 -170 8 -291 24 -354 46 -120 41 -287 187 -351 307 -176 330 29 728 428 831 108 28 317 29 426 1z m1607 -692 c4 -791 0 -750 73 -897 68 -138 216 -259 373 -305 73 -21 239 -21 312 0 159 47 312 173 381 314 67 139 68 148 68 915 l0 685 110 0 110 0 0 -717 c0 -685 -1 -722 -20 -802 -74 -308 -315 -556 -614 -631 -108 -27 -274 -27 -382 0 -309 78 -544 327 -619 656 l-25 109 0 693 0 692 114 0 115 0 4 -712z m3217 697 c195 -52 354 -212 416 -420 12 -41 18 -93 18 -165 0 -121 -16 -188 -72 -295 -42 -80 -143 -188 -214 -229 -109 -64 -143 -70 -393 -76 l-231 -5 524 -480 523 -480 -166 -3 -165 -2 -493 455 -492 455 -3 -455 -2 -455 -115 0 -115 0 0 1085 0 1085 463 0 c372 0 473 -3 517 -15z m5312 -848 l648 -859 0 861 0 861 115 0 115 0 0 -1085 0 -1085 -92 0 -93 1 -650 862 -650 863 -3 -863 -2 -863 -110 0 -110 0 0 1085 0 1086 92 -3 92 -3 648 -858z m3022 829 c257 -77 477 -250 622 -491 51 -82 110 -227 121 -292 l6 -33 -114 0 -114 0 -25 67 c-44 118 -106 212 -204 308 -101 100 -191 156 -321 202 -75 26 -90 28 -245 28 -146 0 -173 -3 -235 -23 -241 -80 -427 -251 -526 -482 -48 -114 -63 -191 -63 -335 0 -144 15 -221 63 -335 98 -229 284 -400 521 -480 82 -28 297 -39 392 -20 260 50 497 246 603 498 l32 77 108 3 c60 1 112 -1 116 -5 10 -11 -39 -152 -80 -233 -86 -168 -255 -352 -409 -444 -96 -57 -231 -110 -339 -132 -109 -23 -337 -15 -448 16 -360 98 -648 391 -752 766 -26 92 -28 112 -28 289 0 212 12 274 79 435 96 227 293 438 512 548 156 79 272 102 479 98 139 -3 172 -7 249 -30z m2956 -81 l0 -115 -580 0 -580 0 0 -370 0 -370 425 0 425 0 0 -115 0 -115 -425 0 -425 0 0 -370 0 -370 580 0 580 0 0 -115 0 -115 -695 0 -695 0 0 1085 0 1085 695 0 695 0 0 -115z m2985 100 c92 -24 174 -73 251 -150 79 -78 121 -147 156 -250 19 -57 23 -91 23 -185 0 -128 -20 -208 -78 -310 -42 -75 -158 -188 -233 -227 -113 -60 -141 -63 -541 -63 l-363 0 0 -485 0 -485 -110 0 -110 0 0 1085 0 1085 473 0 c392 0 483 -3 532 -15z m1475 -470 l0 -485 620 0 620 0 0 485 0 485 115 0 115 0 0 -1085 0 -1085 -115 0 -115 0 0 485 0 485 -620 0 -620 0 0 -485 0 -485 -115 0 -115 0 0 1085 0 1085 115 0 115 0 0 -485z m-13184 131 c27 -13 67 -43 87 -67 94 -109 87 -261 -16 -363 -80 -80 -183 -99 -282 -52 -96 44 -148 128 -148 241 -1 57 4 80 26 121 65 127 208 178 333 120z m84 -612 c150 -47 291 -165 364 -304 58 -110 80 -200 80 -320 0 -122 -19 -201 -71 -308 -67 -136 -241 -292 -326 -292 -55 0 -97 43 -97 100 0 56 11 73 78 119 115 78 183 184 204 316 11 70 10 77 -9 103 -44 59 -133 31 -133 -41 0 -98 -63 -203 -151 -252 -47 -26 -64 -30 -129 -30 -90 1 -135 21 -198 88 -48 53 -69 98 -78 170 -9 75 -26 97 -73 97 -65 0 -86 -40 -71 -138 20 -125 100 -252 194 -307 81 -48 108 -98 82 -159 -44 -105 -155 -80 -301 68 -179 182 -236 442 -151 688 77 222 270 386 504 428 72 13 194 2 282 -26z m9665 -988 c52 -56 53 -126 1 -181 -29 -31 -39 -35 -82 -35 -77 0 -124 47 -124 125 0 78 47 125 124 125 43 0 53 -4 81 -34z"
    ></path>
    <path
      d="M2420 4433 c-100 -235 -185 -436 -188 -445 -4 -17 18 -18 372 -18 207 0 376 2 376 5 0 6 -358 853 -369 873 -4 7 -84 -165 -191 -415z"
    ></path>
    <path
      d="M11690 4640 l0 -372 343 4 342 3 62 29 c76 35 144 104 181 184 24 50 27 69 27 157 0 90 -3 105 -29 157 -39 77 -98 135 -176 172 l-65 31 -342 3 -343 4 0 -372z"
    ></path>
    <path
      d="M25930 4640 l0 -370 308 0 c169 0 338 5 376 10 123 18 220 92 274 208 23 49 27 70 27 152 0 83 -4 103 -28 155 -54 116 -149 187 -274 205 -37 5 -206 10 -375 10 l-308 0 0 -370z"
    ></path>
    <path
      d="M14841 3773 c-95 -48 -95 -199 0 -249 51 -26 116 -14 155 28 42 47 50 96 25 152 -10 24 -31 52 -45 61 -38 25 -95 29 -135 8z"
    ></path>
  </g>
</svg>
