<svg width="187" height="180" viewBox="0 0 187 180" fill="none" xmlns="http://www.w3.org/2000/svg">
<circle cx="90" cy="90" r="90" fill="#F0F5EF"/>
<path d="M53.8797 74.9023H123.462L135.059 109.693H42.2827L53.8797 74.9023Z" fill="#E6E6E6"/>
<path d="M27.7861 147.385V161.881C27.7861 162.65 28.0916 163.387 28.6353 163.931C29.179 164.475 29.9165 164.78 30.6854 164.78H53.8794C54.6484 164.78 55.3858 164.475 55.9295 163.931C56.4732 163.387 56.7787 162.65 56.7787 161.881V147.385H27.7861Z" fill="#444444"/>
<path d="M120.562 147.385V161.881C120.562 162.65 120.867 163.387 121.411 163.931C121.955 164.475 122.692 164.78 123.461 164.78H146.655C147.424 164.78 148.162 164.475 148.705 163.931C149.249 163.387 149.555 162.65 149.555 161.881V147.385H120.562Z" fill="#444444"/>
<path d="M147.006 117.543L137.59 108.126L127.521 77.9503C126.944 76.221 125.838 74.7166 124.36 73.6496C122.883 72.5826 121.107 72.0069 119.284 72.0039H58.0573C56.2344 72.0069 54.4585 72.5826 52.9805 73.6496C51.5025 74.7166 50.3971 76.221 49.8205 77.9503L39.7485 108.126L30.3317 117.545C28.7022 119.176 27.7866 121.387 27.7861 123.692V147.385H149.555V123.695C149.555 122.552 149.33 121.421 148.893 120.365C148.455 119.309 147.814 118.35 147.006 117.543ZM55.3059 79.7855C55.4982 79.208 55.8675 78.7056 56.3613 78.3497C56.8552 77.9937 57.4485 77.8023 58.0573 77.8024H119.284C119.892 77.8023 120.486 77.9937 120.98 78.3497C121.473 78.7056 121.843 79.208 122.035 79.7855L131.037 106.795H46.3037L55.3059 79.7855Z" fill="#72C472"/>
<path d="M149.555 141.586H27.7861V150.284H149.555V141.586Z" fill="#4DA34D"/>
<path d="M45.1818 132.888C48.3842 132.888 50.9803 130.292 50.9803 127.09C50.9803 123.887 48.3842 121.291 45.1818 121.291C41.9794 121.291 39.3833 123.887 39.3833 127.09C39.3833 130.292 41.9794 132.888 45.1818 132.888Z" fill="#E6E6E6"/>
<path d="M132.159 132.888C135.362 132.888 137.958 130.292 137.958 127.09C137.958 123.887 135.362 121.291 132.159 121.291C128.957 121.291 126.361 123.887 126.361 127.09C126.361 130.292 128.957 132.888 132.159 132.888Z" fill="#E6E6E6"/>
<path d="M100.268 129.988H77.0736C76.3046 129.988 75.5672 129.683 75.0235 129.139C74.4798 128.595 74.1743 127.858 74.1743 127.089C74.1743 126.32 74.4798 125.582 75.0235 125.039C75.5672 124.495 76.3046 124.189 77.0736 124.189H100.268C101.037 124.189 101.774 124.495 102.318 125.039C102.861 125.582 103.167 126.32 103.167 127.089C103.167 127.858 102.861 128.595 102.318 129.139C101.774 129.683 101.037 129.988 100.268 129.988Z" fill="#4DA34D"/>
<path fill-rule="evenodd" clip-rule="evenodd" d="M50.9967 158.012L44.614 157.983L43.2993 149.031L49.682 149.06L50.9967 158.012Z" fill="#EBBC8F"/>
<path fill-rule="evenodd" clip-rule="evenodd" d="M44.8795 156.258C46.3549 156.667 49.6936 158.005 51.2594 155.646L61.8465 161.608L43.1572 161.48L44.0283 156.841C44.0886 156.421 44.485 156.149 44.8795 156.258Z" fill="#744C2E"/>
<path fill-rule="evenodd" clip-rule="evenodd" d="M61.8342 163.143L43.1455 163.015L43.1571 161.332L61.8457 161.459L61.8342 163.143Z" fill="#99643D"/>
<path fill-rule="evenodd" clip-rule="evenodd" d="M39.925 79.207C39.925 79.207 43.5166 87.1163 47.7233 111.524C51.9305 135.931 52.4957 152.332 52.4957 152.332H39.5544L28.27 84.1981L31.154 81.5412L37.2057 79.207H39.925Z" fill="#596818"/>
<path fill-rule="evenodd" clip-rule="evenodd" d="M29.7917 157.761L23.5234 157.734L23.5587 148.928L29.8276 148.956L29.7917 157.761Z" fill="#EBBC8F"/>
<path fill-rule="evenodd" clip-rule="evenodd" d="M23.5734 156.112C25.0487 156.521 28.3875 157.859 29.9532 155.5L40.5404 161.461L21.8511 161.334L22.7222 156.695C22.7825 156.275 23.1789 156.003 23.5734 156.112Z" fill="#744C2E"/>
<path fill-rule="evenodd" clip-rule="evenodd" d="M40.529 163.143L21.8403 163.015L21.8519 161.332L40.5405 161.459L40.529 163.143Z" fill="#99643D"/>
<mask id="mask0" mask-type="alpha" maskUnits="userSpaceOnUse" x="18" y="74" width="21" height="79">
<path fill-rule="evenodd" clip-rule="evenodd" d="M18.9243 74.0215H38.7877V152.332H18.9243V74.0215Z" fill="white"/>
</mask>
<g mask="url(#mask0)">
<path fill-rule="evenodd" clip-rule="evenodd" d="M25.9313 79.207C25.9313 79.207 19.318 87.3407 18.9972 99.1255C18.6271 112.722 19.7862 152.332 19.7862 152.332L32.1784 152.018L38.7879 79.207H25.9313Z" fill="#83952F"/>
</g>
<path fill-rule="evenodd" clip-rule="evenodd" d="M41.5998 34.0405C41.5542 33.7595 41.3601 33.5278 41.1377 33.3578C40.1751 32.6214 38.955 32.5197 38.0818 31.5984C37.8033 31.3051 37.5672 30.9717 37.2727 30.6957C36.8943 30.3401 36.4291 30.0887 35.941 29.9149C32.6935 28.7589 26.4542 31.5319 26.8308 35.5115C26.9041 36.2848 27.2073 37.0255 27.2547 37.8007C27.3163 38.812 26.9423 39.8349 27.1493 40.8264C27.2578 41.3434 27.5185 41.8148 27.776 42.2776C28.2924 43.2063 29.4127 45.0186 30.4486 45.4592C30.5269 45.4931 30.6162 45.5202 30.6951 45.4875C30.7777 45.453 30.8208 45.3637 30.8541 45.2805C31.3594 43.9944 30.6168 42.55 30.2785 41.2461C30 40.1707 29.9014 39.2945 30.3864 38.3017C30.8171 37.4193 30.8713 36.7784 30.9588 35.7524C31.1123 33.953 34.6617 33.6844 35.5251 34.3813C36.7347 35.3586 37.3374 34.7745 38.0658 34.8373C38.4657 34.8712 38.8237 35.2126 39.0696 35.5158C38.9365 35.5823 39.3931 35.875 39.3931 35.875L39.2742 39.5792C40.8634 38.4392 39.9588 35.713 39.9576 35.7074C40.7063 35.3223 41.7126 34.7301 41.5998 34.0405Z" fill="#2B2D4D"/>
<path fill-rule="evenodd" clip-rule="evenodd" d="M35.9042 46.1408L35.7797 50.8667C35.7391 52.5261 34.6952 53.3889 33.0622 53.3365C31.6677 53.2915 30.3816 52.5292 30.2534 51.1403L30.8068 43.7129L35.9042 46.1408Z" fill="#EBBC8F"/>
<path fill-rule="evenodd" clip-rule="evenodd" d="M35.8272 48.446C32.5199 48.4491 30.4204 44.5176 30.4204 44.5176L35.9264 45.6576L35.8272 48.446Z" fill="#00023C" fill-opacity="0.18"/>
<path fill-rule="evenodd" clip-rule="evenodd" d="M34.459 46.2819C37.2185 46.2905 39.4973 44.1171 39.5799 41.8635L39.7426 36.5461C39.8455 33.7214 38.0449 31.3249 35.2256 31.1283C32.3392 30.9274 28.9765 33.07 28.775 35.9558L28.6912 40.2342C28.6259 43.5434 31.1573 46.052 34.459 46.2819Z" fill="#EBBC8F"/>
<path fill-rule="evenodd" clip-rule="evenodd" d="M26.1152 39.7175C26.0326 40.9007 26.9249 41.9267 28.1087 42.0087C29.2918 42.0912 30.3178 41.1983 30.3998 40.0152C30.4824 38.832 29.5901 37.806 28.4063 37.724C27.2231 37.6415 26.1971 38.5338 26.1152 39.7175Z" fill="#EBBC8F"/>
<path fill-rule="evenodd" clip-rule="evenodd" d="M28.9618 40.5557C28.9618 40.5557 29.0696 39.0022 27.5679 39.1439Z" fill="#00023C" fill-opacity="0.18"/>
<path fill-rule="evenodd" clip-rule="evenodd" d="M40.3 36.725C39.3332 37.3338 38.0724 36.8587 37.0519 36.3454C35.7893 35.7107 34.5494 35.0292 33.3361 34.3045C33.524 34.7734 33.7446 35.442 33.4297 35.9061C33.113 36.3732 32.3458 36.4379 31.8399 36.4557C31.4313 36.4693 30.9371 36.6098 30.8465 37.0085C30.8028 37.2026 30.8743 37.4072 30.8465 37.6056C30.8194 37.7979 30.6919 37.9735 30.5175 38.0598C30.3844 38.1251 30.2254 38.1423 30.1114 38.2372C29.7971 38.4985 30.0584 39.2103 30.0775 39.5498C30.0966 39.9017 30.0633 40.2997 29.7959 40.5302C29.733 40.2813 29.4588 40.1599 29.2844 39.9731C29.1408 39.8191 29.0626 39.6157 28.9942 39.4173C28.8105 38.883 28.6971 38.3414 28.5782 37.7905C28.4771 37.3258 28.2109 37.0048 27.9879 36.5956C26.8571 34.5239 27.8079 32.2974 29.5944 30.9972C30.8465 30.0852 32.4161 29.7216 33.9566 29.5583C34.9407 29.4548 35.9877 29.4363 36.8597 29.9059C37.4371 30.2164 37.8869 30.7162 38.3238 31.2061C38.9363 31.892 39.5489 32.5784 40.1608 33.2643C40.5841 33.7376 41.0167 34.2275 41.233 34.8252C41.4487 35.4229 41.4 36.1612 40.9446 36.6049C40.8078 36.738 40.3795 36.8988 40.3 36.725Z" fill="#2B2D4D"/>
<path fill-rule="evenodd" clip-rule="evenodd" d="M36.2189 41.045C36.1954 40.8824 36.1307 40.7147 36.0506 40.5527C36.01 40.4713 35.9607 40.3918 35.8467 40.4085C35.7296 40.4251 35.6821 40.5077 35.6698 40.6106C35.6606 40.6845 35.6593 40.7647 35.676 40.8368C35.7567 41.1923 35.7684 41.5639 35.9114 41.9059C35.9526 42.0057 36.013 42.0754 36.1289 42.0575C36.2595 42.0359 36.3211 41.9386 36.3242 41.8209C36.3329 41.5639 36.2983 41.31 36.2189 41.045Z" fill="#00023C" fill-opacity="0.18"/>
<path fill-rule="evenodd" clip-rule="evenodd" d="M35.8336 43.7824C35.8404 43.7799 35.8465 43.7775 35.8539 43.7756C35.9501 43.7454 36.0961 43.7738 36.1084 43.6327C36.122 43.4835 35.9679 43.502 35.8786 43.4601C35.3295 43.5076 34.8932 43.2833 34.526 42.8957C34.4113 42.8575 34.3078 42.651 34.1821 42.8186C34.0533 42.9887 34.2782 43.0399 34.351 43.1409C34.3966 43.205 34.4896 43.2192 34.5192 43.3005C34.9179 43.5673 35.3474 43.7522 35.8336 43.7824Z" fill="#2B2D4D"/>
<path fill-rule="evenodd" clip-rule="evenodd" d="M37.5712 39.3867C37.6124 39.3547 37.6537 39.3269 37.6919 39.3047C37.8947 39.1877 38.1418 39.1667 38.3729 39.2049C38.6409 39.2493 38.9176 39.3775 39.1284 39.5475C39.2263 39.6264 39.3182 39.7694 39.3588 39.8871C39.41 40.0356 39.3151 40.1644 39.1431 40.0886C38.8806 39.9727 38.7494 39.6554 38.4487 39.579C38.1553 39.5056 37.8737 39.6431 37.6396 39.8094C37.5835 39.8495 37.5219 39.8828 37.4689 39.9265C37.2945 40.0713 37.1965 39.8704 37.2593 39.7071C37.3111 39.5716 37.4664 39.4674 37.5712 39.3867Z" fill="#2B2D4D"/>
<path fill-rule="evenodd" clip-rule="evenodd" d="M32.4714 38.6336C32.525 38.5923 32.578 38.5559 32.6279 38.527C32.8898 38.3748 33.2102 38.3483 33.5091 38.3976C33.856 38.4555 34.2134 38.6206 34.487 38.8412C34.6134 38.9429 34.7329 39.1284 34.7853 39.2812C34.8512 39.4723 34.7286 39.6393 34.5055 39.5419C34.166 39.3921 33.9965 38.9799 33.6071 38.8825C33.2281 38.7876 32.8633 38.9645 32.5601 39.1802C32.4874 39.2319 32.4079 39.2751 32.3395 39.3324C32.1127 39.5197 31.9864 39.2597 32.0677 39.0477C32.1349 38.8727 32.3352 38.7377 32.4714 38.6336Z" fill="#2B2D4D"/>
<path fill-rule="evenodd" clip-rule="evenodd" d="M32.0198 48.4622C33.2693 48.6008 34.5599 48.5065 35.7607 48.144C36.8191 48.4455 39.433 48.9369 39.433 48.9369C39.4241 49.8869 38.2361 51.6515 37.576 52.3333C36.9789 52.9498 36.1879 53.3436 35.3797 53.6323C33.8768 54.1679 32.2302 54.3719 30.6702 54.0358C29.1089 53.7003 27.6458 52.7913 26.7978 51.4385C26.5213 50.9966 25.6836 50.3468 25.706 49.8266C25.706 49.8266 29.2763 48.4757 30.3354 47.9805C31.0673 48.2107 31.2565 48.3782 32.0198 48.4622Z" fill="#ECBC8F"/>
<path fill-rule="evenodd" clip-rule="evenodd" d="M36.8667 48.9343C41.6564 49.0844 59.3579 57.8729 59.3579 57.8729L74.2113 45.6552C74.2113 45.6552 74.9932 43.6289 76.797 43.5692C78.6014 43.5089 79.0825 43.5089 78.661 46.2748C78.2402 49.0414 76.3762 49.1614 74.9932 48.9811C74.9932 48.9811 66.6793 62.8099 59.3579 63.7187C52.0365 64.6275 39.4328 55.815 39.4328 55.815L36.8667 48.9343Z" fill="#ECBC8F"/>
<path fill-rule="evenodd" clip-rule="evenodd" d="M80.9085 44.7347C80.462 45.55 78.2195 46.9939 77.6659 47.55C77.1143 48.1017 74.7974 49.194 74.7974 49.194L73.1052 47.4262C73.1052 47.4262 72.8576 46.924 73.6633 45.3043C74.4657 43.6827 75.8513 40.9604 76.3542 41.0348C76.841 41.1086 76.4113 43.21 76.3048 43.6538L76.2945 43.6955C76.2875 43.7212 76.3009 43.7212 76.3368 43.7032C76.7262 43.4813 79.6621 40.4697 80.0932 40.7667C80.2221 40.859 80.3818 41.1509 80.5287 41.5383C80.539 41.5646 80.5486 41.5916 80.5582 41.6211C80.6641 41.9085 80.7641 42.2427 80.845 42.5845C80.8539 42.6147 80.8603 42.6436 80.8655 42.6756C80.9431 43.0175 81.0015 43.3678 81.0278 43.6853C81.0284 43.7206 81.0303 43.7513 81.0323 43.7828C81.0573 44.1824 81.0252 44.5262 80.9085 44.7347Z" fill="#ECBC8F"/>
<path fill-rule="evenodd" clip-rule="evenodd" d="M75.965 46.1983C75.9637 46.1983 75.963 46.1977 75.9624 46.1977C75.9412 46.1907 75.929 46.1669 75.9361 46.1457C76.2543 45.1791 76.2543 43.7121 76.2536 43.698C76.2543 43.6742 76.2722 43.6563 76.2953 43.6563C76.3178 43.6556 76.3364 43.6742 76.337 43.6973C76.337 43.7121 76.337 45.1926 76.0143 46.1714C76.0073 46.1919 75.9855 46.2041 75.965 46.1983Z" fill="#7362A5"/>
<path fill-rule="evenodd" clip-rule="evenodd" d="M80.5585 41.6199L77.4801 44.1363C77.4686 44.144 77.457 44.1472 77.4449 44.144C77.4346 44.1414 77.4288 44.1369 77.4211 44.1273C77.4089 44.1106 77.4115 44.0875 77.4288 44.0715L80.529 41.5371C80.5392 41.5634 80.5488 41.5903 80.5585 41.6199Z" fill="#7362A5"/>
<path fill-rule="evenodd" clip-rule="evenodd" d="M80.8653 42.6751L78.1404 44.7854C78.1314 44.7931 78.1173 44.7963 78.1038 44.7931C78.0981 44.7912 78.0891 44.7854 78.0833 44.7803C78.0686 44.7598 78.0711 44.7367 78.0891 44.72L80.8454 42.584C80.8537 42.6141 80.8601 42.643 80.8653 42.6751Z" fill="#7362A5"/>
<path fill-rule="evenodd" clip-rule="evenodd" d="M81.0323 43.7844L78.6397 45.6433C78.6275 45.651 78.6134 45.6535 78.6038 45.651C78.5935 45.6484 78.5852 45.6426 78.5807 45.6349C78.5678 45.6176 78.5678 45.5907 78.5877 45.5791L81.0272 43.6875C81.0278 43.7221 81.0304 43.7529 81.0323 43.7844Z" fill="#7362A5"/>
<path fill-rule="evenodd" clip-rule="evenodd" d="M46.6486 50.6321C49.0175 51.8855 51.387 53.3564 54.0548 53.6123C53.5789 54.687 52.3922 57.0535 51.6462 57.8401C51.0098 58.5123 45.8321 62.3899 44.714 62.658C43.9757 62.8351 43.0738 62.9666 42.5645 62.4027C42.2489 62.0525 42.2008 61.5451 42.1399 61.0769C41.6928 57.6618 38.2591 53.9625 38.0808 50.5077C37.9146 47.2953 44.4023 49.4435 46.6486 50.6321Z" fill="#A0DCE0"/>
<path fill-rule="evenodd" clip-rule="evenodd" d="M26.8456 49.3809L22.9565 50.1673L19.4285 63.4569C19.4285 63.4569 18.9615 87.519 20.2932 87.7512C21.5215 87.9654 43.0813 86.9654 46.5734 83.4913L43.3424 67.1856C43.3424 67.1856 43.6766 64.5583 43.4963 60.2285C43.3161 55.8987 39.7945 49.9864 39.4334 48.9345L37.9651 48.6445C37.9651 48.6445 37.3936 50.7947 36.8612 51.4676C35.849 52.7453 34.3011 53.626 32.659 53.7056C30.0451 53.8332 27.4748 51.9211 26.8456 49.3809Z" fill="#A0DCE0"/>
<path fill-rule="evenodd" clip-rule="evenodd" d="M24.1658 58.714L24.7951 60.0361C26.8616 66.1421 29.5557 72.2146 32.3491 77.7684C36.8347 79.1193 41.3638 80.3293 45.927 81.3903C47.3431 81.719 49.2698 81.7078 50.5789 82.1914C51.7171 82.6109 52.4204 83.676 51.7729 84.7717C51.0425 86.0052 48.6987 85.7523 47.5493 85.7992C43.7929 85.9512 40.0253 85.7253 36.3012 85.227C33.8592 84.9055 31.4618 84.4665 29.1409 83.9524C27.9046 83.6778 26.8393 82.8932 26.2159 81.7911C24.7722 79.239 23.513 76.7714 22.4383 74.4998C19.7906 68.8914 18.0946 65.2639 17.638 63.7528C16.6985 60.6338 18.3863 54.3198 21.9917 53.7734C21.9917 53.7734 22.3537 58.0303 24.1658 58.714Z" fill="#EBBC8F"/>
<mask id="mask1" mask-type="alpha" maskUnits="userSpaceOnUse" x="49" y="80" width="10" height="7">
<path fill-rule="evenodd" clip-rule="evenodd" d="M49.0728 80.3965H58.8154V86.4061H49.0728V80.3965Z" fill="white"/>
</mask>
<g mask="url(#mask1)">
<path fill-rule="evenodd" clip-rule="evenodd" d="M56.527 86.3477C55.6303 86.5934 53.0337 85.986 52.2499 85.9744C51.4692 85.9609 49.0728 85.0552 49.0728 85.0552L49.1664 82.61C49.1664 82.61 49.3563 82.0834 51.0811 81.5356C52.8034 80.9852 55.7233 80.0885 56.0203 80.5022C56.3057 80.9031 54.4962 82.0558 54.1036 82.2874L54.0658 82.3085C54.0427 82.3214 54.0523 82.331 54.0895 82.3444C54.5206 82.4702 58.7266 82.4856 58.8119 83.0026C58.8356 83.1597 58.7362 83.4766 58.5611 83.8525C58.5483 83.8782 58.5367 83.9038 58.5213 83.9308C58.3885 84.2072 58.2179 84.5113 58.028 84.8076C58.0126 84.8352 57.9966 84.8596 57.9774 84.8859C57.7856 85.179 57.5739 85.4638 57.3635 85.7037C57.3398 85.7281 57.3186 85.7512 57.2974 85.7749C57.0274 86.0706 56.758 86.2862 56.527 86.3477Z" fill="#EBBC8F"/>
</g>
<path fill-rule="evenodd" clip-rule="evenodd" d="M52.0378 83.8118C52.0371 83.8112 52.0371 83.8105 52.0365 83.8099C52.0262 83.7894 52.0352 83.7644 52.0557 83.7541C52.9717 83.3115 54.0263 82.2916 54.0365 82.2807C54.0532 82.2653 54.0795 82.2659 54.0949 82.282C54.1103 82.298 54.1103 82.3243 54.0943 82.3403C54.0834 82.3512 53.0192 83.3801 52.0917 83.8285C52.0724 83.8388 52.0487 83.8304 52.0378 83.8118Z" fill="#7362A5"/>
<path fill-rule="evenodd" clip-rule="evenodd" d="M58.5213 83.9302L54.5732 83.467C54.5591 83.4632 54.5488 83.4581 54.5424 83.4465C54.5372 83.4375 54.5372 83.4305 54.5379 83.4183C54.5411 83.3978 54.5597 83.383 54.5834 83.3849L58.5611 83.8519C58.5482 83.8776 58.536 83.9032 58.5213 83.9302Z" fill="#7362A5"/>
<path fill-rule="evenodd" clip-rule="evenodd" d="M57.9771 84.8854L54.5659 84.3927C54.5537 84.3921 54.5415 84.3838 54.5351 84.3722C54.5319 84.3664 54.5299 84.3568 54.5293 84.3491C54.5344 84.3235 54.5524 84.3093 54.5761 84.3106L58.0278 84.8071C58.013 84.8347 57.9963 84.8591 57.9771 84.8854Z" fill="#7362A5"/>
<path fill-rule="evenodd" clip-rule="evenodd" d="M57.297 85.7762L54.2969 85.3484C54.2841 85.3445 54.2712 85.3362 54.2661 85.3278C54.2623 85.3189 54.2597 85.3086 54.2623 85.3003C54.2655 85.2791 54.286 85.2605 54.3078 85.2669L57.363 85.705C57.3387 85.7294 57.3181 85.7525 57.297 85.7762Z" fill="#7362A5"/>
<mask id="mask2" mask-type="alpha" maskUnits="userSpaceOnUse" x="17" y="50" width="14" height="19">
<path fill-rule="evenodd" clip-rule="evenodd" d="M17 50.0488H30.0004V68.7169H17V50.0488Z" fill="#A2D2E1"/>
</mask>
<g mask="url(#mask2)">
<path fill-rule="evenodd" clip-rule="evenodd" d="M17.4219 68.8096C16.7343 68.73 16.4024 57.863 17.4223 55.4697C18.0374 54.0271 18.7584 52.5864 19.8989 51.51C21.0394 50.433 22.6809 49.7736 24.2005 50.1604C25.969 52.9648 26.9183 56.1682 27.9639 59.2863C28.4738 60.8059 30.0005 64.9805 30.0005 64.9805C28.4013 67.3673 19.8989 67.3096 19.8989 67.3096L17.4219 68.8096Z" fill="#A0DCE0"/>
</g>
<path fill-rule="evenodd" clip-rule="evenodd" d="M145.757 122.79C146.674 118.463 147.878 113.225 148.914 108.803C149.077 108.116 149.234 107.446 149.386 106.805C150.397 102.529 151.154 99.4237 151.154 99.4237L138.498 86.9238C138.498 86.9238 136.771 103.512 136.22 108.341C135.599 113.779 134.997 120.591 135.238 124.97C135.466 129.114 136.77 131.275 138.409 131.76C140.993 132.528 144.411 129.131 145.757 122.79Z" fill="#539553"/>
<path fill-rule="evenodd" clip-rule="evenodd" d="M135.648 127.913C135.648 127.913 135.865 130.277 136.306 132.559C136.984 136.072 138.12 141.467 139.513 146.216C140.38 149.161 141.343 151.859 142.361 153.705L147.167 152.918C147.167 152.918 146.984 151.426 146.791 149.345C146.538 146.627 146.27 142.902 146.371 140.178C146.48 137.265 146.388 134.477 145.65 132.227C145.169 130.764 145.043 128.517 143.891 127.626C140.969 125.367 135.648 127.913 135.648 127.913Z" fill="#539553"/>
<path fill-rule="evenodd" clip-rule="evenodd" d="M142.615 153.274L142.623 153.463L142.695 155.335L142.845 159.225C144.264 159.9 145.673 159.49 147.315 158.903L146.977 153.164L142.615 153.274Z" fill="#EBBC8F"/>
<path fill-rule="evenodd" clip-rule="evenodd" d="M148.035 152.792C148.035 152.792 148.345 154.313 147.9 155.328L142.566 155.257C142.566 155.257 141.713 154.393 142.06 152.777L148.035 152.792Z" fill="#539553"/>
<path fill-rule="evenodd" clip-rule="evenodd" d="M132.539 163.718C132.554 163.806 132.572 163.901 132.591 164.001C132.605 164.064 132.618 164.129 132.633 164.191C132.692 164.452 132.767 164.693 132.851 164.777C132.997 164.924 135.354 164.99 136.787 165.017C137.422 165.029 137.876 165.033 137.876 165.033L143.203 165.145C143.975 165.18 146.707 165.201 147.946 165.209C148.294 165.212 148.583 164.942 148.605 164.596C148.611 164.519 148.615 164.439 148.621 164.353C148.643 164.014 148.669 163.615 148.691 163.228C148.726 162.613 148.755 162.028 148.755 161.768C148.753 161.106 148.219 159.819 148.219 159.819C148.219 159.819 149.285 158.783 148.582 158.387C147.877 157.991 147.556 158.265 147.556 158.265C147.556 158.265 145.836 159.134 144.978 159.01C144.628 158.959 144.277 158.779 143.969 158.537C143.523 158.188 143.161 157.713 143.003 157.319C142.737 156.65 141.6 157.106 141.505 157.717C141.465 157.964 141.338 158.113 141.134 158.26C140.921 158.416 140.623 158.573 140.258 158.848C140.201 158.892 140.14 158.94 140.077 158.989C139.991 159.061 139.902 159.138 139.809 159.225C139.647 159.375 139.46 159.521 139.253 159.664C139.21 159.694 139.166 159.723 139.122 159.752C138.897 159.899 138.598 159.945 138.349 160.082C137.48 160.559 136.591 161.066 136.021 161.371C135.953 161.407 135.879 161.445 135.798 161.484C135.012 161.856 133.681 162.315 133.075 162.752C132.658 163.051 132.503 163.507 132.539 163.718Z" fill="#664126"/>
<path fill-rule="evenodd" clip-rule="evenodd" d="M132.633 164.189C132.692 164.45 132.768 164.691 132.851 164.775C133.063 164.987 137.877 165.032 137.877 165.032L143.203 165.144C143.975 165.179 146.708 165.2 147.946 165.208C148.293 165.21 148.583 164.942 148.605 164.594C148.611 164.518 148.615 164.438 148.621 164.352C143.582 164.55 138.199 164.455 132.633 164.189Z" fill="#7E4F2D"/>
<path fill-rule="evenodd" clip-rule="evenodd" d="M139.146 93.5435C142.035 99.3214 145.502 101.633 146.787 106.167C146.787 106.167 153.826 108.639 158.419 107.979C159.681 107.798 160.259 107.489 160.934 106.167C162.768 102.573 162.628 94.7098 159.762 89.5422C156.896 84.3745 154.823 82.4277 154.823 82.4277C150.32 82.4277 141.268 82.4277 141.268 82.4277C140.293 82.438 137.008 84.3478 139.146 93.5435Z" fill="#6AB36A"/>
<path fill-rule="evenodd" clip-rule="evenodd" d="M153.444 127.719C153.961 126.14 154.532 124.437 155.124 122.7C157.665 115.233 160.58 107.115 161.198 105.399C161.275 105.183 161.316 105.068 161.316 105.068L146.787 106.168C146.787 106.168 145.374 111.788 144.212 118.021C144.211 118.023 144.211 118.024 144.211 118.024C143.72 120.658 143.274 123.401 142.998 125.874C142.884 126.89 142.799 127.86 142.752 128.759C142.19 139.442 150.146 137.787 153.444 127.719Z" fill="#6AB36A"/>
<path fill-rule="evenodd" clip-rule="evenodd" d="M143.459 133.861C143.459 133.861 144.539 135.716 146.192 138.358C148.06 141.341 150.661 145.332 153.264 148.788C153.634 149.281 154.004 149.762 154.372 150.228C154.998 151.018 155.616 151.764 156.218 152.445C157 153.328 157.754 154.099 158.458 154.715L162.205 152.561C162.205 152.561 159.761 147.244 158.144 142.845C157.894 142.16 157.661 141.498 157.463 140.88C156.564 138.099 155.52 135.502 154.049 133.641C153.099 132.439 151.972 131.542 150.589 131.102C147.07 129.98 143.459 133.861 143.459 133.861Z" fill="#6AB36A"/>
<path fill-rule="evenodd" clip-rule="evenodd" d="M158.189 155.422L158.555 156.283L159.787 159.182C161.197 159.878 162.759 159.109 164.41 158.545L163.57 156.427L162.643 154.09L158.189 155.422Z" fill="#EBBC8F"/>
<path fill-rule="evenodd" clip-rule="evenodd" d="M163.04 152.029C163.04 152.029 163.475 153.121 163.67 154.122L157.398 156.012C157.398 156.012 156.809 155.163 156.419 154.024L163.04 152.029Z" fill="#6AB36A"/>
<mask id="mask3" mask-type="alpha" maskUnits="userSpaceOnUse" x="149" y="157" width="17" height="9">
<path fill-rule="evenodd" clip-rule="evenodd" d="M165.355 157.119H149.198V165.331H165.355V157.119Z" fill="white"/>
</mask>
<g mask="url(#mask3)">
<path fill-rule="evenodd" clip-rule="evenodd" d="M149.205 164.157C149.224 164.244 149.242 164.339 149.266 164.437C149.281 164.501 149.296 164.564 149.313 164.626C149.38 164.884 149.463 165.124 149.549 165.205C149.767 165.409 154.581 165.304 154.581 165.304L159.908 165.249C160.075 165.252 160.335 165.251 160.651 165.247C161.795 165.235 163.681 165.19 164.65 165.167C164.997 165.157 165.279 164.879 165.29 164.532C165.293 164.456 165.294 164.375 165.298 164.289C165.329 163.412 165.366 162.124 165.353 161.702C165.329 161.039 164.755 159.771 164.755 159.771C164.755 159.771 165.788 158.701 165.072 158.328C164.357 157.954 164.043 158.238 164.043 158.238C164.043 158.238 162.353 159.16 161.492 159.062C161.191 159.028 160.888 158.9 160.609 158.719V158.718C160.089 158.382 159.652 157.862 159.465 157.433C159.178 156.773 158.056 157.266 157.98 157.878C157.947 158.127 157.824 158.279 157.625 158.433C157.416 158.596 157.124 158.761 156.768 159.048C156.711 159.093 156.653 159.142 156.592 159.195C156.509 159.269 156.422 159.349 156.331 159.438C156.173 159.594 155.991 159.746 155.788 159.895C155.747 159.926 155.704 159.956 155.661 159.987C155.44 160.141 155.143 160.196 154.899 160.341C154.424 160.621 153.945 160.909 153.516 161.167C153.384 161.246 153.257 161.322 153.136 161.393C152.941 161.509 152.765 161.613 152.61 161.702C151.896 162.115 150.363 162.671 149.708 163.173C149.303 163.486 149.163 163.946 149.205 164.157Z" fill="#7E4F2D"/>
</g>
<path fill-rule="evenodd" clip-rule="evenodd" d="M149.313 164.626C149.381 164.884 149.463 165.124 149.55 165.205C149.767 165.409 154.581 165.304 154.581 165.304L159.908 165.25C160.681 165.261 163.413 165.196 164.65 165.166C164.998 165.158 165.279 164.88 165.29 164.532C165.294 164.456 165.296 164.375 165.299 164.289C160.268 164.644 154.885 164.718 149.313 164.626Z" fill="#664126"/>
<path fill-rule="evenodd" clip-rule="evenodd" d="M149.717 46.0488V46.0507C149.716 46.0507 149.715 46.0516 149.715 46.0516L149.717 46.0488Z" fill="#432C82"/>
<mask id="mask4" mask-type="alpha" maskUnits="userSpaceOnUse" x="138" y="32" width="21" height="18">
<path fill-rule="evenodd" clip-rule="evenodd" d="M158.313 32.957H138.227V49.2545H158.313V32.957Z" fill="white"/>
</mask>
<g mask="url(#mask4)">
<path fill-rule="evenodd" clip-rule="evenodd" d="M156.786 46.3084C156.752 46.3683 156.72 46.4293 156.694 46.492C156.621 46.5847 156.475 46.6291 156.444 46.7494C156.353 46.7453 156.299 46.7971 156.243 46.8432C155.671 47.3135 154.931 47.5098 154.184 47.6687C153.602 47.7924 153.589 47.7631 153.539 48.2662C153.516 48.4936 153.382 48.6018 153.104 48.6156C152.449 48.6473 151.91 48.4395 151.437 48.0855C151.374 48.0383 151.297 47.9392 151.221 48.0049C151.085 48.1235 150.887 48.1505 150.758 48.2944C149.453 49.7468 146.351 49.3813 144.884 48.3238C144.691 48.1845 144.481 48.0216 144.225 48.0313C144.042 48.0388 143.885 48.135 143.721 48.2023C143.376 48.3439 142.961 48.3623 142.599 48.2524C142.432 48.2006 142.277 48.1235 142.109 48.0711C141.878 47.998 141.638 48.0509 141.402 48.0653C141.157 48.0803 141.026 48.0054 140.797 47.941C140.685 47.9093 140.55 47.9179 140.475 48.006C140.439 48.0486 140.42 48.1062 140.376 48.1407C140.332 48.1741 140.273 48.1787 140.218 48.1764C139.901 48.1637 139.864 47.9726 139.618 47.8615C139.613 47.9859 139.624 48.0918 139.734 48.1758C139.637 48.4401 139.51 48.5051 139.222 48.4142C138.971 48.3347 138.765 48.2115 138.607 48.0135C138.313 47.648 138.23 47.2381 138.227 46.8236C138.221 46.1288 138.475 45.5083 138.645 44.8503C138.823 44.1607 139.01 43.4722 139.143 42.7716C139.282 42.0469 139.179 41.3394 139.195 40.6077C139.205 40.1466 139.259 39.6861 139.354 39.2342C139.469 38.6873 139.647 38.1531 139.884 37.646C140.549 36.2264 141.683 35.0308 143.066 34.2916C143.641 33.9842 144.254 33.754 144.872 33.5456C145.432 33.3574 145.998 33.1841 146.58 33.0782C149.457 32.552 152.108 33.7903 154.086 35.8148C154.515 36.254 154.812 36.7819 155.16 37.2741C155.43 37.654 155.727 38.0248 155.942 38.426C156.326 39.1415 156.705 39.8599 157.032 40.5962C157.387 41.3964 157.75 42.1925 157.984 43.0237C158.085 43.3824 158.123 43.7508 158.199 44.1123C158.332 44.7432 158.38 45.373 158.171 45.9866C158.084 46.2422 157.959 46.48 157.747 46.6521C157.659 46.724 157.312 46.9457 157.199 46.8622C157.108 46.7954 157.193 46.5795 157.202 46.4874C157.228 46.2307 157.223 45.9745 157.114 45.7356C156.906 46.2555 156.532 46.834 155.978 47.0176C155.991 47.0044 156.004 46.9911 156.016 46.9779" fill="#2B2D4D"/>
</g>
<path fill-rule="evenodd" clip-rule="evenodd" d="M145.136 47.2759L145.252 51.6906C145.29 53.2408 146.265 54.0467 147.791 53.9978C149.093 53.9558 150.295 53.2437 150.415 51.9462L149.898 45.0078L145.136 47.2759Z" fill="#EBBC8F"/>
<path fill-rule="evenodd" clip-rule="evenodd" d="M145.209 49.43C148.299 49.4331 150.26 45.4004 150.26 45.4004L145.116 46.5556L145.209 49.43Z" fill="#00023C" fill-opacity="0.18"/>
<path fill-rule="evenodd" clip-rule="evenodd" d="M147.242 47.3192C144.698 47.7331 142.276 46.0637 141.868 43.9971L140.935 39.1155C140.424 36.5257 141.732 34.0492 144.304 33.4528C146.937 32.8432 150.355 34.3238 150.965 36.9562L151.672 40.8908C152.22 43.9337 150.254 46.6209 147.242 47.3192Z" fill="#EBBC8F"/>
<path fill-rule="evenodd" clip-rule="evenodd" d="M137.851 39.3365C138.173 39.3745 138.459 39.2881 138.739 39.1551C138.818 39.1171 138.925 39.0728 138.919 38.9773C138.914 38.8702 138.796 38.9116 138.725 38.8926C138.168 38.747 137.81 38.1414 138.012 37.6561C138.294 36.9786 138.688 36.396 139.385 36.0702C139.598 35.9706 139.717 35.8129 139.615 35.5452C139.406 34.996 139.442 34.4359 139.602 33.8827C139.725 33.4585 139.975 33.1263 140.436 33.0526C140.861 32.9841 141.239 33.1257 141.51 33.4711C141.636 33.6306 141.777 33.7802 141.832 33.9978C141.875 34.1717 141.993 34.2644 142.155 34.0502C143.248 32.6007 145.51 32.154 147.199 32.6808C147.048 32.4361 146.929 32.2018 146.888 31.9324C146.794 31.3061 146.836 30.7207 147.388 30.2987C147.76 30.0137 148.185 29.9665 148.645 30.0184C149.202 30.0805 149.661 30.3045 150.043 30.7097C150.351 31.0373 150.575 31.4206 150.785 31.8115C150.891 32.009 151.68 31.5202 151.906 31.45C152.424 31.2877 152.976 31.336 153.489 31.4984C154.289 31.7511 154.543 32.8408 154.127 33.5344C153.785 34.1043 153.275 34.4509 152.687 34.7065C152.334 34.8602 152.318 34.8654 152.607 35.1359C153.771 36.2216 154.416 37.9094 153.605 39.4004C153.448 39.6899 153.237 39.9605 152.95 40.124C152.614 40.3168 152.208 40.3433 151.845 40.4791C151.367 40.6582 151.183 40.9874 150.851 41.3265C150.402 41.7853 149.987 40.5827 149.759 40.2264C149.268 39.4596 148.776 38.6923 148.285 37.9255C148.257 37.8801 148.227 37.8334 148.185 37.7989C148.036 37.6757 147.801 37.7551 147.671 37.8967C147.54 38.0389 147.474 38.2277 147.364 38.3866C147.107 38.7602 146.646 38.9249 146.215 39.0676C146.039 39.1263 145.856 39.1851 145.671 39.1672C145.047 39.1056 145.415 38.3222 145.189 37.9169C145.147 37.8409 145.141 37.7356 145.031 37.7229C144.899 37.7079 144.872 37.8219 144.833 37.9094C144.642 38.3291 144.51 38.7729 144.316 39.1931C144.137 39.5788 143.907 40.0917 143.521 40.3122C143.035 40.5914 142.589 40.2103 142.126 40.7008C141.79 41.0577 141.779 41.6051 141.414 41.9545C141.048 42.304 140.548 42.2832 140.107 42.0311C139.777 41.8423 139.493 41.4946 139.391 41.1239C139.35 40.9702 139.248 40.0255 139.352 39.9576C139.259 40.0186 139.203 40.052 139.15 40.0911C138.675 40.4417 137.87 40.2414 137.614 39.7083C137.481 39.4326 137.556 39.3008 137.851 39.3365Z" fill="#2B2D4D"/>
<path fill-rule="evenodd" clip-rule="evenodd" d="M154.329 41.2172C154.579 42.2971 153.907 43.3747 152.828 43.6251C151.748 43.8749 150.671 43.2026 150.42 42.1232C150.17 41.0439 150.842 39.9663 151.922 39.7164C153.001 39.466 154.079 40.1378 154.329 41.2172Z" fill="#EBBC8F"/>
<path fill-rule="evenodd" clip-rule="evenodd" d="M151.826 42.408C151.826 42.408 151.498 40.9913 152.904 40.9004Z" fill="#00023C" fill-opacity="0.18"/>
<path fill-rule="evenodd" clip-rule="evenodd" d="M144.843 42.5127C144.865 42.3608 144.925 42.2042 145 42.0528C145.038 41.9768 145.084 41.9026 145.19 41.9181C145.3 41.9336 145.344 42.0108 145.356 42.1069C145.364 42.176 145.365 42.2508 145.35 42.3182C145.274 42.6503 145.263 42.9974 145.13 43.3169C145.091 43.4102 145.035 43.4752 144.927 43.4585C144.805 43.4384 144.747 43.3474 144.744 43.2375C144.736 42.9974 144.768 42.7603 144.843 42.5127Z" fill="#00023C" fill-opacity="0.18"/>
<path fill-rule="evenodd" clip-rule="evenodd" d="M147.076 39.5077C146.997 39.4616 146.896 39.4185 146.87 39.3056C146.845 39.1986 146.913 39.1116 146.987 39.057C147.228 38.8808 147.511 38.8359 147.799 38.8699C147.966 38.8894 148.025 39.0811 147.923 39.2147C147.81 39.3632 147.267 39.5555 147.076 39.5077Z" fill="#D3CCFB"/>
<path fill-rule="evenodd" clip-rule="evenodd" d="M142.099 39.6547C142.19 39.6288 142.289 39.6282 142.328 39.623C142.632 39.638 142.781 39.7399 142.769 39.889C142.756 40.0473 142.579 40.1607 142.36 40.1636C142.259 40.1647 142.17 40.1388 142.079 40.1037C141.974 40.0634 141.891 40.007 141.896 39.885C141.902 39.7595 141.989 39.6864 142.099 39.6547Z" fill="#D3CCFB"/>
<path fill-rule="evenodd" clip-rule="evenodd" d="M145.203 45.0721C145.196 45.0698 145.19 45.0675 145.184 45.0658C145.094 45.0376 144.957 45.0641 144.946 44.9322C144.933 44.7929 145.077 44.8102 145.16 44.771C145.673 44.8154 146.081 44.6058 146.424 44.2437C146.531 44.2081 146.628 44.0152 146.745 44.1718C146.866 44.3307 146.655 44.3785 146.588 44.4729C146.545 44.5327 146.458 44.546 146.43 44.622C146.058 44.8712 145.657 45.0439 145.203 45.0721Z" fill="#2B2D4D"/>
<path fill-rule="evenodd" clip-rule="evenodd" d="M144.628 40.9206L145.599 40.7352L145.545 40.4531L144.574 40.6385L144.628 40.9206Z" fill="white"/>
<path fill-rule="evenodd" clip-rule="evenodd" d="M149.797 40.6427L152.844 39.4085L152.736 39.1426L149.69 40.3762L149.797 40.6427Z" fill="white"/>
<mask id="mask5" mask-type="alpha" maskUnits="userSpaceOnUse" x="145" y="38" width="5" height="5">
<path fill-rule="evenodd" clip-rule="evenodd" d="M149.819 38.375H145.46V42.9092H149.819V38.375Z" fill="white"/>
</mask>
<g mask="url(#mask5)">
<path fill-rule="evenodd" clip-rule="evenodd" d="M149.532 40.6396C149.534 41.7316 148.686 42.621 147.643 42.6227H147.64C147.136 42.6227 146.663 42.4184 146.306 42.0465C145.946 41.6735 145.748 41.1756 145.747 40.646C145.745 39.5539 146.593 38.664 147.636 38.6617H147.639C148.681 38.6617 149.53 39.5482 149.532 40.6396ZM147.64 42.9094H147.643C148.845 42.9077 149.821 41.8894 149.819 40.6396C149.817 39.3899 148.84 38.375 147.639 38.375H147.636C146.434 38.3773 145.458 39.3962 145.46 40.646C145.46 41.2504 145.687 41.8186 146.099 42.2457C146.51 42.674 147.058 42.9094 147.64 42.9094Z" fill="white"/>
</g>
<mask id="mask6" mask-type="alpha" maskUnits="userSpaceOnUse" x="140" y="39" width="5" height="5">
<path fill-rule="evenodd" clip-rule="evenodd" d="M144.827 39.1992H140.713V43.4769H144.827V39.1992Z" fill="white"/>
</mask>
<g mask="url(#mask6)">
<path fill-rule="evenodd" clip-rule="evenodd" d="M144.683 41.3349H144.539C144.541 42.3561 143.748 43.1885 142.772 43.1902H142.769C141.795 43.1902 141.001 42.3607 141 41.3412C140.998 40.3194 141.791 39.4876 142.766 39.4859H142.769C143.24 39.4859 143.683 39.677 144.017 40.0247C144.353 40.3741 144.539 40.8398 144.539 41.3349H144.683ZM142.769 43.4769H142.773C143.907 43.4752 144.828 42.5144 144.827 41.3349C144.826 40.7644 144.611 40.2285 144.223 39.8255C143.835 39.4214 143.318 39.1992 142.769 39.1992H142.766C141.632 39.2009 140.711 40.1617 140.712 41.3412C140.715 42.5196 141.637 43.4769 142.769 43.4769Z" fill="white"/>
</g>
<path fill-rule="evenodd" clip-rule="evenodd" d="M143.579 40.9673C143.54 40.9374 143.502 40.9115 143.466 40.8908C143.277 40.7814 143.046 40.7618 142.83 40.7975C142.58 40.839 142.321 40.9587 142.124 41.1176C142.033 41.1913 141.947 41.3248 141.909 41.4348C141.861 41.5735 141.95 41.6938 142.111 41.623C142.356 41.5148 142.478 41.2183 142.759 41.1469C143.033 41.0784 143.296 41.2068 143.515 41.3622C143.568 41.3997 143.625 41.4307 143.675 41.4716C143.838 41.6069 143.929 41.4192 143.87 41.2667C143.822 41.14 143.677 41.0428 143.579 40.9673Z" fill="#2B2D4D"/>
<path fill-rule="evenodd" clip-rule="evenodd" d="M148.343 40.2611C148.293 40.2225 148.244 40.1885 148.197 40.1615C147.953 40.0193 147.653 39.9946 147.374 40.0406C147.05 40.0947 146.716 40.249 146.46 40.4551C146.342 40.5501 146.231 40.7233 146.182 40.8661C146.12 41.0445 146.235 41.2005 146.443 41.1096C146.76 40.9697 146.919 40.5846 147.283 40.4936C147.637 40.405 147.977 40.5702 148.261 40.7717C148.328 40.82 148.403 40.8603 148.467 40.9139C148.678 41.0889 148.797 40.8459 148.721 40.6479C148.658 40.4844 148.471 40.3584 148.343 40.2611Z" fill="#2B2D4D"/>
<path fill-rule="evenodd" clip-rule="evenodd" d="M136.114 59.8359L133.677 65.9878L139.91 67.2974L141.953 60.4842L136.114 59.8359Z" fill="#EBBC8F"/>
<path fill-rule="evenodd" clip-rule="evenodd" d="M114.822 65.7847C115.612 66.2967 118.301 66.5069 119.06 66.7366C119.816 66.9638 122.405 66.8256 122.405 66.8256L123.064 64.4394C123.064 64.4394 123.043 63.8736 121.549 62.8165C120.056 61.7574 117.516 59.9975 117.104 60.3051C116.705 60.6042 118.096 62.2701 118.404 62.614L118.433 62.6458C118.452 62.6653 118.44 62.6717 118.399 62.673C117.945 62.662 113.887 61.3875 113.646 61.8593C113.574 62.004 113.572 62.3395 113.627 62.7555C113.63 62.784 113.634 62.8126 113.64 62.8437C113.684 63.15 113.755 63.4959 113.847 63.8398C113.854 63.871 113.862 63.8995 113.872 63.9307C113.968 64.272 114.083 64.612 114.213 64.9073C114.229 64.9385 114.242 64.9677 114.255 64.9962C114.425 65.3648 114.619 65.6549 114.822 65.7847Z" fill="#EBBC8F"/>
<path fill-rule="evenodd" clip-rule="evenodd" d="M119.927 64.7163C119.928 64.7156 119.928 64.715 119.929 64.7143C119.944 64.6981 119.943 64.6715 119.927 64.6553C119.18 63.9473 118.477 62.6403 118.47 62.6274C118.459 62.6073 118.433 62.5995 118.413 62.6105C118.393 62.6209 118.385 62.6468 118.396 62.667C118.403 62.6799 119.113 63.9992 119.87 64.7163C119.886 64.7312 119.911 64.7306 119.927 64.7163Z" fill="#B3B2E6"/>
<path fill-rule="evenodd" clip-rule="evenodd" d="M113.639 62.8422L117.588 63.6073C117.602 63.6073 117.614 63.6053 117.624 63.5962C117.631 63.5891 117.634 63.5826 117.636 63.5703C117.639 63.5495 117.626 63.53 117.602 63.5248L113.625 62.7539C113.629 62.7825 113.633 62.811 113.639 62.8422Z" fill="#B3B2E6"/>
<path fill-rule="evenodd" clip-rule="evenodd" d="M113.872 63.9287L117.312 64.5011C117.323 64.5037 117.338 64.4992 117.347 64.4901C117.352 64.4855 117.357 64.4764 117.36 64.4693C117.363 64.4433 117.349 64.4245 117.326 64.4187L113.847 63.8379C113.853 63.869 113.861 63.8976 113.872 63.9287Z" fill="#B3B2E6"/>
<path fill-rule="evenodd" clip-rule="evenodd" d="M114.255 64.9952L117.278 65.5033C117.292 65.5039 117.307 65.4994 117.314 65.4929C117.322 65.4857 117.326 65.4767 117.326 65.4676C117.329 65.4455 117.316 65.4215 117.293 65.4209L114.213 64.9062C114.229 64.9374 114.242 64.9666 114.255 64.9952Z" fill="#B3B2E6"/>
<path fill-rule="evenodd" clip-rule="evenodd" d="M139.911 67.2981C139.903 67.2962 133.678 65.9886 133.678 65.9886L122.703 63.6836L121.467 66.866C124.744 68.376 128.831 71.0613 132.109 72.5707C134.031 73.4572 135.674 74.3352 137.324 72.4643C137.705 72.0334 139.903 67.2962 139.911 67.2981Z" fill="#EBBC8F"/>
<path fill-rule="evenodd" clip-rule="evenodd" d="M145.595 54.3237C145.595 54.3237 144.065 64.1758 141.182 72.0577L132.765 62.9688L138.19 53.5664L145.595 54.3237Z" fill="#B2790F"/>
<path fill-rule="evenodd" clip-rule="evenodd" d="M151.911 50.1324C151.911 50.1324 158.009 50.7236 161.088 56.2726C159.076 62.2653 157.649 67.4644 156.807 71.8697C155.966 76.275 155.966 80.4125 156.807 84.2821C152.581 84.5886 149.233 84.7229 146.765 84.6849C144.297 84.6469 141.83 84.4582 139.365 84.1189L137.679 56.0766C137.361 54.8878 137.836 53.6289 138.859 52.9449L142.454 50.9637L144.997 49.6275H146.715L148.964 49.4082L151.911 50.1324Z" fill="#EA9800"/>
<path fill-rule="evenodd" clip-rule="evenodd" d="M149.938 49.332L153.72 50.4891C153.72 50.4891 151.097 54.3632 146.403 53.9712C142.17 53.6176 141.953 51.2399 141.953 51.2399L144.999 49.6273L149.938 49.332Z" fill="#EBBC8F"/>
<path fill-rule="evenodd" clip-rule="evenodd" d="M164.516 63.8613L179.616 82.9315L176.946 84.9334L158.597 68.4428L164.516 63.8613Z" fill="#EBBC8F"/>
<path fill-rule="evenodd" clip-rule="evenodd" d="M159.442 54L167.644 62.7723L158.011 71.8703L153.317 65.5361L159.442 54Z" fill="#EA9800"/>
<path fill-rule="evenodd" clip-rule="evenodd" d="M110.984 58.675L108.422 62.2247C108.28 62.4213 108.346 62.6906 108.568 62.8256L118.153 68.6056C118.377 68.7399 118.674 68.6893 118.815 68.492L121.377 64.9424C121.519 64.7451 121.454 64.4758 121.23 64.3408L111.646 58.5614C111.422 58.4271 111.127 58.4777 110.984 58.675Z" fill="#5C616E"/>
<path fill-rule="evenodd" clip-rule="evenodd" d="M111.478 57.992L108.917 61.541C108.775 61.7383 108.84 62.0076 109.063 62.1426L118.648 67.922C118.872 68.057 119.168 68.0057 119.31 67.8084L121.872 64.2588C122.014 64.0621 121.948 63.7922 121.725 63.6579L112.141 57.8778C111.918 57.7435 111.621 57.7941 111.478 57.992Z" fill="#A1A6B2"/>
<circle cx="119.5" cy="65.5" r="0.5" fill="#EFF2F9"/>
<path fill-rule="evenodd" clip-rule="evenodd" d="M112.381 58.623L110.13 61.7418L117.941 66.4518L120.192 63.3336L112.381 58.623Z" fill="#EBEBEB"/>
<path fill-rule="evenodd" clip-rule="evenodd" d="M110.13 61.7418L120.192 63.3336L112.381 58.623L110.13 61.7418Z" fill="#EFF2F9"/>
<path fill-rule="evenodd" clip-rule="evenodd" d="M184.033 87.7726C183.093 87.8265 180.652 86.6772 179.879 86.5001C179.11 86.3229 176.93 84.9199 176.93 84.9199L177.539 82.5202C177.539 82.5202 177.839 82.0387 179.661 81.8621C181.481 81.6811 184.56 81.4105 184.765 81.8829C184.964 82.3391 182.93 83.0977 182.492 83.2437L182.451 83.2567C182.425 83.2651 182.432 83.2762 182.467 83.2976C182.867 83.513 187.024 84.4163 186.999 84.9465C186.99 85.1068 186.825 85.3995 186.572 85.7337C186.554 85.757 186.537 85.7797 186.516 85.8038C186.326 86.0484 186.093 86.3132 185.843 86.5662C185.822 86.5903 185.8 86.611 185.776 86.6324C185.524 86.8823 185.255 87.1198 184.996 87.3125C184.967 87.332 184.941 87.3508 184.915 87.369C184.586 87.6045 184.274 87.7603 184.033 87.7726Z" fill="#EBBC8F"/>
</svg>
