<svg width="180" height="185" viewBox="0 0 180 185" fill="none" xmlns="http://www.w3.org/2000/svg">
<circle cx="90" cy="90" r="90" fill="#F0F5EF"/>
<mask id="mask0" mask-type="alpha" maskUnits="userSpaceOnUse" x="0" y="0" width="180" height="180">
<circle cx="90" cy="90" r="90" fill="white"/>
</mask>
<g mask="url(#mask0)">
<path d="M123.693 134.124C113.392 114.678 38.9649 116.807 3.03891 120.302C-2.20693 132.058 -4.40064 161.862 28.7912 187.028C61.983 212.194 115.427 183.851 138 166.533C137.523 163.833 133.994 153.57 123.693 134.124Z" fill="#C2C2C2"/>
</g>
<path fill-rule="evenodd" clip-rule="evenodd" d="M135.485 166.766L135.417 164.319L135.277 159.264H126.481L127.228 164.319L127.575 166.681L128.591 173.56H135.671L135.485 166.766Z" fill="#EBBC8F"/>
<path fill-rule="evenodd" clip-rule="evenodd" d="M118.058 164.32L117.919 159.264H109.121L109.868 164.32L110.216 166.682L111.232 173.56H118.312L118.126 166.768L118.058 164.32Z" fill="#EBBC8F"/>
<path fill-rule="evenodd" clip-rule="evenodd" d="M125.787 161.048C125.787 161.048 123.508 150.063 122.744 143.902C121.978 137.743 121.582 123.139 121.582 123.139C121.582 123.139 112.494 124.92 96.0674 123.954C71.8015 122.53 63.8267 113.271 72.143 96.1799C72.8883 95.5424 74.9771 95.4958 78.4093 96.04C94.2129 97.5655 118.129 104.819 126.355 108.385C128.335 109.244 130.095 110.152 131.638 111.108C133.621 112.337 134.862 116.063 135.61 120.966C137.857 135.7 135.634 161.048 135.634 161.048H125.787Z" fill="#539553"/>
<path fill-rule="evenodd" clip-rule="evenodd" d="M152.516 184.759H126.226C126.031 184.403 125.924 183.896 125.88 183.293C125.716 181.056 126.424 177.49 126.772 175.241C126.815 174.978 126.851 174.734 126.879 174.512C126.927 174.136 126.957 173.823 126.957 173.593C126.957 171.757 128.573 172.072 128.573 172.072C131.234 174.695 134.246 170.763 136.005 172.053C136.005 172.053 136.077 172.105 136.238 172.231C136.386 172.348 136.61 172.53 136.921 172.792C137.369 173.169 137.998 173.716 138.849 174.486C140.936 176.373 144.486 177.618 147.509 178.888C147.893 179.05 148.251 179.213 148.584 179.373C148.835 179.495 149.073 179.617 149.297 179.739C151.767 181.08 152.553 182.361 152.731 183.293C152.901 184.186 152.516 184.759 152.516 184.759Z" fill="#664126"/>
<mask id="mask1" mask-type="alpha" maskUnits="userSpaceOnUse" x="125" y="183" width="28" height="2">
<path fill-rule="evenodd" clip-rule="evenodd" d="M125.881 183.293H152.775V184.76H125.881V183.293Z" fill="white"/>
</mask>
<g mask="url(#mask1)">
<path fill-rule="evenodd" clip-rule="evenodd" d="M152.515 184.76H126.227C126.032 184.404 125.924 183.896 125.881 183.293H152.732C152.902 184.186 152.515 184.76 152.515 184.76Z" fill="#664126"/>
</g>
<path fill-rule="evenodd" clip-rule="evenodd" d="M135.372 184.794H109.082C108.887 184.438 108.781 183.931 108.737 183.328C108.573 181.092 109.281 177.525 109.629 175.276C109.672 175.014 109.707 174.769 109.735 174.548C109.784 174.171 109.814 173.858 109.814 173.629C109.814 171.793 111.43 172.107 111.43 172.107C114.091 174.73 117.103 170.798 118.862 172.088C118.862 172.088 118.933 172.14 119.095 172.268C119.242 172.384 119.466 172.565 119.778 172.829C120.226 173.204 120.855 173.751 121.706 174.521C123.793 176.408 127.342 177.653 130.365 178.923C130.75 179.086 131.108 179.248 131.44 179.408C131.691 179.53 131.929 179.653 132.153 179.774C134.624 181.115 135.41 182.396 135.588 183.328C135.759 184.222 135.372 184.794 135.372 184.794Z" fill="#7E4F2D"/>
<path fill-rule="evenodd" clip-rule="evenodd" d="M135.372 184.794H109.083C108.888 184.438 108.781 183.931 108.737 183.328H135.588C135.759 184.22 135.372 184.794 135.372 184.794Z" fill="#7E4F2D"/>
<mask id="mask2" mask-type="alpha" maskUnits="userSpaceOnUse" x="55" y="95" width="65" height="67">
<path fill-rule="evenodd" clip-rule="evenodd" d="M55 95.7559H119.472V161.081H55V95.7559Z" fill="white"/>
</mask>
<g mask="url(#mask2)">
<path fill-rule="evenodd" clip-rule="evenodd" d="M108.643 161.081C108.643 161.081 106.364 150.096 105.6 143.935C104.835 137.777 104.438 123.172 104.438 123.172C104.438 123.172 103.335 123.532 101.091 123.931C97.3483 124.597 63.9406 122.823 62.6696 122.823C49.8917 122.823 57.5661 95.7559 57.5661 95.7559L72.1427 96.1792L73.8905 98.7524C89.693 100.277 100.985 104.851 109.211 108.418C111.191 109.276 112.951 110.185 114.494 111.141C116.477 112.37 117.718 116.096 118.466 120.999C120.713 135.733 118.49 161.081 118.49 161.081H108.643Z" fill="#6AB36A"/>
</g>
<path fill-rule="evenodd" clip-rule="evenodd" d="M69.7988 37.4668V37.4686C69.7998 37.4686 69.8007 37.4696 69.8016 37.4696L69.7988 37.4668Z" fill="#432C82"/>
<mask id="mask3" mask-type="alpha" maskUnits="userSpaceOnUse" x="54" y="14" width="37" height="30">
<path fill-rule="evenodd" clip-rule="evenodd" d="M54.5508 14.2441H90.1817V43.1546H54.5508V14.2441Z" fill="white"/>
</mask>
<g mask="url(#mask3)">
<path fill-rule="evenodd" clip-rule="evenodd" d="M57.2594 37.9285C57.3206 38.0347 57.3768 38.1429 57.4227 38.2542C57.5514 38.4186 57.8118 38.4973 57.8669 38.7107C58.0273 38.7036 58.1243 38.7955 58.2233 38.8772C59.2374 39.7114 60.5496 40.0597 61.876 40.3415C62.9084 40.5611 62.9309 40.509 63.0198 41.4015C63.0596 41.8048 63.2975 41.9968 63.7907 42.0213C64.9528 42.0775 65.9086 41.7088 66.748 41.0808C66.8604 40.9971 66.9962 40.8215 67.131 40.9379C67.372 41.1482 67.7243 41.1962 67.953 41.4515C70.268 44.0279 75.77 43.3795 78.372 41.5036C78.7151 41.2565 79.0878 40.9675 79.5422 40.9848C79.8659 40.9981 80.1447 41.1686 80.4357 41.2881C81.0474 41.5393 81.7847 41.572 82.426 41.377C82.7231 41.2851 82.9978 41.1482 83.295 41.0553C83.7055 40.9256 84.1303 41.0196 84.549 41.0451C84.984 41.0716 85.2158 40.9389 85.6233 40.8245C85.8214 40.7684 86.0613 40.7837 86.1941 40.9399C86.2584 41.0155 86.2921 41.1176 86.3697 41.1789C86.4473 41.2381 86.5525 41.2463 86.6506 41.2422C87.2122 41.2197 87.2786 40.8807 87.7136 40.6836C87.7228 40.9042 87.7044 41.0921 87.5083 41.2412C87.6799 41.7099 87.9066 41.8253 88.4161 41.6639C88.8624 41.523 89.227 41.3045 89.5078 40.9532C90.0286 40.3047 90.1756 39.5777 90.1819 38.8424C90.192 37.6099 89.7416 36.5091 89.4404 35.3419C89.1248 34.1185 88.793 32.8972 88.556 31.6544C88.311 30.3688 88.4927 29.1138 88.4641 27.8159C88.4468 26.9979 88.3518 26.181 88.1833 25.3794C87.9781 24.4093 87.6635 23.4616 87.2428 22.562C86.0624 20.0438 84.0507 17.9228 81.5978 16.6116C80.5777 16.0663 79.4901 15.6579 78.3934 15.2882C77.4008 14.9543 76.396 14.6469 75.3646 14.459C70.2608 13.5257 65.5573 15.7222 62.0486 19.3137C61.2879 20.0928 60.7609 21.0292 60.1431 21.9023C59.6652 22.5763 59.1383 23.2339 58.7574 23.9457C58.0763 25.215 57.4033 26.4894 56.8233 27.7955C56.1933 29.2149 55.5489 30.6271 55.1343 32.1017C54.9556 32.7379 54.8882 33.3914 54.7534 34.0327C54.5175 35.1519 54.4328 36.2691 54.8034 37.3577C54.9576 37.8111 55.1782 38.2328 55.555 38.5381C55.7113 38.6658 56.326 39.0589 56.5272 38.9109C56.6875 38.7924 56.5374 38.4095 56.5211 38.2461C56.4761 37.7906 56.4843 37.3362 56.6773 36.9124C57.047 37.8345 57.7097 38.8608 58.6921 39.1866C58.6696 39.1631 58.6471 39.1396 58.6247 39.1161" fill="#2B2D4D"/>
</g>
<path fill-rule="evenodd" clip-rule="evenodd" d="M77.9251 39.6464L77.7189 47.4778C77.6515 50.2278 75.9216 51.6574 73.2155 51.5706C70.9046 51.4961 68.7734 50.2329 68.561 47.9312L69.478 35.623L77.9251 39.6464Z" fill="#EBBC8F"/>
<path fill-rule="evenodd" clip-rule="evenodd" d="M77.7966 43.4665C72.316 43.4721 68.8369 36.3184 68.8369 36.3184L77.961 38.3676L77.7966 43.4665Z" fill="#00023C" fill-opacity="0.18"/>
<path fill-rule="evenodd" clip-rule="evenodd" d="M74.19 39.7207C78.7036 40.4549 82.9996 37.4935 83.7236 33.8275L85.3789 25.1681C86.2847 20.5738 83.9636 16.1808 79.4021 15.1228C74.7312 14.0414 68.6686 16.6679 67.5861 21.3377L66.3311 28.3173C65.36 33.7152 68.8473 38.482 74.19 39.7207Z" fill="#EBBC8F"/>
<path fill-rule="evenodd" clip-rule="evenodd" d="M90.8485 25.5622C90.2777 25.6296 89.7692 25.4764 89.2729 25.2405C89.133 25.1731 88.943 25.0945 88.9533 24.925C88.9635 24.735 89.1728 24.8086 89.2974 24.7749C90.2859 24.5165 90.921 23.4422 90.5636 22.5814C90.0633 21.3795 89.3638 20.3461 88.1271 19.7681C87.7493 19.5914 87.5379 19.3116 87.7187 18.8368C88.0893 17.8626 88.026 16.869 87.7422 15.8876C87.5236 15.135 87.0804 14.5458 86.2635 14.4151C85.5089 14.2936 84.838 14.5448 84.357 15.1575C84.1344 15.4404 83.8842 15.7059 83.7872 16.0919C83.7096 16.4003 83.5002 16.5647 83.2133 16.1848C81.2751 13.6135 77.2629 12.8211 74.2658 13.7555C74.5334 13.3215 74.7458 12.9058 74.8173 12.4279C74.9847 11.3169 74.9092 10.2784 73.9309 9.52987C73.2712 9.02439 72.5166 8.94065 71.7007 9.03256C70.7122 9.14284 69.8993 9.54008 69.2213 10.259C68.6739 10.84 68.2767 11.5201 67.905 12.2135C67.7171 12.5637 66.3171 11.6968 65.9168 11.5722C64.9977 11.2842 64.0174 11.37 63.1075 11.658C61.6891 12.1063 61.2378 14.0393 61.9761 15.2698C62.5827 16.2808 63.4884 16.8955 64.531 17.3489C65.156 17.6216 65.1856 17.6308 64.672 18.1107C62.6082 20.0366 61.4635 23.0307 62.9023 25.6755C63.1811 26.1892 63.5558 26.6691 64.0634 26.9591C64.6607 27.3012 65.3796 27.3482 66.025 27.5892C66.8726 27.9068 67.1983 28.4909 67.7875 29.0923C68.5841 29.9062 69.3203 27.773 69.7247 27.1409C70.5958 25.7807 71.4678 24.4195 72.3389 23.0593C72.3899 22.9786 72.443 22.8959 72.5176 22.8346C72.781 22.6161 73.1987 22.757 73.4295 23.0082C73.6613 23.2605 73.7777 23.5954 73.9727 23.8772C74.4292 24.54 75.2472 24.832 76.012 25.0853C76.3245 25.1894 76.6482 25.2936 76.976 25.2619C78.084 25.1527 77.4314 23.7629 77.8317 23.044C77.9063 22.9092 77.9175 22.7223 78.1115 22.6998C78.3454 22.6733 78.3934 22.8755 78.4638 23.0307C78.8018 23.7751 79.0357 24.5624 79.3808 25.3079C79.6984 25.9921 80.1049 26.9019 80.7901 27.293C81.6529 27.7883 82.4433 27.1123 83.2643 27.9823C83.8617 28.6155 83.8811 29.5866 84.5285 30.2064C85.177 30.8263 86.0644 30.7895 86.8466 30.3422C87.4327 30.0073 87.9362 29.3905 88.1159 28.7329C88.1894 28.4602 88.3702 26.7845 88.1864 26.664C88.3508 26.7723 88.4508 26.8315 88.5448 26.9009C89.3862 27.5228 90.8148 27.1674 91.2693 26.2218C91.5051 25.7327 91.3724 25.4989 90.8485 25.5622Z" fill="#2B2D4D"/>
<path fill-rule="evenodd" clip-rule="evenodd" d="M61.6182 28.8957C61.174 30.8114 62.3667 32.723 64.2814 33.1672C66.1961 33.6104 68.1077 32.4177 68.5519 30.503C68.9961 28.5883 67.8034 26.6767 65.8887 26.2335C63.9741 25.7893 62.0614 26.981 61.6182 28.8957Z" fill="#EBBC8F"/>
<path fill-rule="evenodd" clip-rule="evenodd" d="M66.0577 31.0104C66.0577 31.0104 66.6397 28.4973 64.145 28.3359L66.0577 31.0104Z" fill="#00023C" fill-opacity="0.18"/>
<path fill-rule="evenodd" clip-rule="evenodd" d="M78.4454 31.1992C78.4066 30.9296 78.2994 30.6518 78.1666 30.3833C78.0992 30.2485 78.0175 30.1167 77.8286 30.1443C77.6346 30.1719 77.556 30.3087 77.5355 30.4793C77.5202 30.6018 77.5182 30.7345 77.5458 30.854C77.6795 31.4432 77.6989 32.059 77.9358 32.6257C78.0043 32.7912 78.1043 32.9066 78.2963 32.877C78.5128 32.8412 78.6149 32.6799 78.62 32.4848C78.6343 32.059 78.5771 31.6383 78.4454 31.1992Z" fill="#00023C" fill-opacity="0.18"/>
<path fill-rule="evenodd" clip-rule="evenodd" d="M74.4832 25.8649C74.6241 25.7832 74.8039 25.7066 74.8498 25.5065C74.8937 25.3165 74.7732 25.1624 74.6415 25.0653C74.2136 24.7529 73.7133 24.6732 73.2017 24.7335C72.9055 24.7682 72.8014 25.1082 72.9811 25.3451C73.1812 25.6086 74.1452 25.9497 74.4832 25.8649Z" fill="#D3CCFB"/>
<path fill-rule="evenodd" clip-rule="evenodd" d="M83.3114 26.1245C83.15 26.0786 82.9754 26.0775 82.906 26.0684C82.3668 26.0949 82.1023 26.2757 82.1238 26.5401C82.1473 26.821 82.4597 27.0221 82.8498 27.0272C83.0275 27.0293 83.1858 26.9833 83.3481 26.921C83.534 26.8496 83.681 26.7495 83.6719 26.533C83.6616 26.3104 83.5074 26.1807 83.3114 26.1245Z" fill="#D3CCFB"/>
<path fill-rule="evenodd" clip-rule="evenodd" d="M77.8073 35.7356C77.8185 35.7315 77.8287 35.7274 77.841 35.7244C78.0003 35.6743 78.2423 35.7213 78.2627 35.4875C78.2852 35.2403 78.0299 35.271 77.8818 35.2015C76.972 35.2802 76.249 34.9085 75.6404 34.2662C75.4504 34.2028 75.2789 33.8607 75.0706 34.1385C74.8571 34.4203 75.2299 34.5051 75.3504 34.6726C75.4259 34.7788 75.5801 34.8023 75.6291 34.9371C76.2898 35.3792 77.0016 35.6856 77.8073 35.7356Z" fill="#2B2D4D"/>
<path fill-rule="evenodd" clip-rule="evenodd" d="M78.8267 28.3722L77.105 28.0433L77.201 27.543L78.9227 27.8718L78.8267 28.3722Z" fill="white"/>
<path fill-rule="evenodd" clip-rule="evenodd" d="M69.6565 27.8799L64.2515 25.6905L64.4434 25.2188L69.8475 27.4071L69.6565 27.8799Z" fill="white"/>
<mask id="mask4" mask-type="alpha" maskUnits="userSpaceOnUse" x="69" y="23" width="9" height="9">
<path fill-rule="evenodd" clip-rule="evenodd" d="M69.6182 23.8555H77.3515V31.8988H69.6182V23.8555Z" fill="white"/>
</mask>
<g mask="url(#mask4)">
<path fill-rule="evenodd" clip-rule="evenodd" d="M70.1277 27.8727C70.1247 29.8099 71.6288 31.3876 73.4792 31.3907H73.4843C74.3778 31.3907 75.2172 31.0281 75.8514 30.3685C76.4886 29.7067 76.8409 28.8234 76.8419 27.884C76.846 25.9468 75.3418 24.3681 73.4904 24.364H73.4853C71.637 24.364 70.1308 25.9366 70.1277 27.8727ZM73.4843 31.8992H73.4782C71.347 31.8961 69.6151 30.0897 69.6182 27.8727C69.6223 25.6558 71.3562 23.8555 73.4853 23.8555H73.4915C75.6236 23.8596 77.3555 25.667 77.3515 27.884C77.3504 28.9562 76.9481 29.9641 76.218 30.7218C75.4878 31.4815 74.5167 31.8992 73.4843 31.8992Z" fill="white"/>
</g>
<mask id="mask5" mask-type="alpha" maskUnits="userSpaceOnUse" x="78" y="25" width="8" height="8">
<path fill-rule="evenodd" clip-rule="evenodd" d="M78.4741 25.3184H85.7722V32.9066H78.4741V25.3184Z" fill="white"/>
</mask>
<g mask="url(#mask5)">
<path fill-rule="evenodd" clip-rule="evenodd" d="M78.7294 29.1069H78.9847C78.9816 30.9184 80.3878 32.395 82.1187 32.3981H82.1238C83.8516 32.3981 85.2598 30.9266 85.2628 29.1181C85.2659 27.3055 83.8598 25.83 82.1289 25.8269H82.1238C81.2885 25.8269 80.5032 26.1659 79.9109 26.7827C79.3145 27.4026 78.9847 28.2287 78.9847 29.1069H78.7294ZM82.1238 32.9066H82.1176C80.1059 32.9036 78.4721 31.1993 78.4741 29.1069C78.4762 28.0949 78.856 27.1442 79.5443 26.4294C80.2336 25.7125 81.1496 25.3184 82.1238 25.3184H82.1299C84.1416 25.3214 85.7755 27.0257 85.7724 29.1181C85.7683 31.2084 84.1324 32.9066 82.1238 32.9066Z" fill="white"/>
</g>
<path fill-rule="evenodd" clip-rule="evenodd" d="M80.687 28.4512C80.7555 28.3981 80.8239 28.3521 80.8872 28.3154C81.2232 28.1214 81.6326 28.0866 82.0156 28.15C82.4598 28.2235 82.9183 28.4359 83.2675 28.7177C83.4299 28.8484 83.5821 29.0853 83.6494 29.2804C83.7342 29.5265 83.5769 29.7399 83.292 29.6143C82.857 29.4223 82.6395 28.8964 82.1412 28.7698C81.6551 28.6483 81.1884 28.876 80.8004 29.1517C80.7075 29.2181 80.6054 29.2732 80.5175 29.3457C80.2285 29.5857 80.0662 29.2528 80.1703 28.9822C80.2561 28.7576 80.5134 28.585 80.687 28.4512Z" fill="#2B2D4D"/>
<path fill-rule="evenodd" clip-rule="evenodd" d="M72.2353 27.2019C72.3241 27.1335 72.412 27.0733 72.4947 27.0253C72.9287 26.773 73.4597 26.7291 73.9549 26.8108C74.5299 26.9068 75.1221 27.1805 75.5755 27.5461C75.7849 27.7146 75.983 28.0219 76.0698 28.2752C76.179 28.5917 75.9758 28.8685 75.6062 28.7071C75.0435 28.459 74.7627 27.7758 74.1173 27.6145C73.4893 27.4572 72.8848 27.7503 72.3823 28.1077C72.2619 28.1935 72.1301 28.265 72.0168 28.3599C71.641 28.6704 71.4316 28.2394 71.5664 27.8882C71.6777 27.5981 72.0096 27.3745 72.2353 27.2019Z" fill="#2B2D4D"/>
<path fill-rule="evenodd" clip-rule="evenodd" d="M71.5505 52.1249L79.4369 49.624L79.7249 45.6221C78.7749 46.6267 76.7389 46.8394 73.617 46.2601C70.495 45.6809 67.5505 44.544 64.7832 42.8496L71.5505 52.1249Z" fill="#B2790F"/>
<path fill-rule="evenodd" clip-rule="evenodd" d="M99.3662 76.4148C99.4065 76.4299 99.8498 76.4943 100.696 76.608C101.964 76.7786 103.336 76.8214 104.761 76.7704C106.187 76.7214 107.664 76.5784 109.171 76.3834C110.678 76.1873 112.214 75.9392 113.771 75.6675L113.779 75.6655C116.077 75.2662 118.263 76.8041 118.663 79.1017C119.044 81.2911 117.649 83.3845 115.529 83.9206C113.934 84.3209 112.31 84.7089 110.639 85.052C108.967 85.3941 107.25 85.6933 105.462 85.8904C103.674 86.0855 101.811 86.1814 99.8678 86.0722C97.9286 85.9609 95.8975 85.6361 93.8818 84.9683C92.592 84.5415 91.6178 83.5989 91.1113 82.445L90.9939 82.1734L79.8479 56.4829C78.5949 53.595 79.9204 50.2384 82.8082 48.9855C85.6961 47.7335 89.0527 49.059 90.3056 51.9458C90.3444 52.0367 90.3884 52.146 90.4221 52.2369L99.3662 76.4148Z" fill="#EBBC8F"/>
<path fill-rule="evenodd" clip-rule="evenodd" d="M92.1737 68.8868C93.1285 66.5228 91.8429 64.2324 90.8687 59.3338C90.7084 58.5322 90.5623 57.7163 90.4418 56.8902C90.3775 56.4511 90.3836 56.7268 90.3877 56.8677C90.3826 56.8105 90.3724 56.7544 90.3683 56.6961C90.3663 56.6716 90.3632 56.6451 90.3612 56.6206C90.3561 56.543 90.351 56.4684 90.3459 56.3929C90.3265 56.1182 90.3091 55.8506 90.2928 55.5923C90.1784 53.7828 90.1253 52.3623 89.82 51.1982C89.7332 50.8663 89.6249 50.5538 89.4901 50.2597C89.0837 49.3775 88.4271 48.6555 87.3232 48.0091C86.6492 47.6129 85.8098 47.2483 84.7591 46.8889C84.322 46.7408 79.8381 45.2703 79.7247 45.6226C79.0936 47.5577 77.6987 49.2937 75.8136 50.0616C73.9296 50.8306 71.5676 50.4926 70.1564 49.0262C69.561 48.4053 69.1556 47.6323 68.7594 46.8695C68.3928 46.1659 68.0262 45.4633 67.6596 44.7587C67.3472 44.1573 67.0102 43.5292 66.4475 43.1514C65.1037 42.2507 61.1089 43.6252 59.6333 43.9142C59.184 44.002 58.7203 44.097 58.2506 44.1961C57.0385 44.4534 56.0418 44.9037 55.2341 45.5062C51.7325 48.1194 51.7917 53.6051 53.3419 58.7466C53.7799 60.1977 54.1853 61.6968 54.5499 63.1979C54.601 63.4001 54.65 63.6013 54.6969 63.8035C54.7705 64.1139 54.842 64.4233 54.9134 64.7348C56 69.5189 56.6821 74.1846 56.7944 77.3186C56.871 79.4232 57.6961 91.9601 57.4408 94.6018C57.3857 95.1747 57.3224 95.7598 57.2488 96.3603L57.2499 96.3593L57.2478 96.3603C57.2478 96.3603 57.1294 98.3914 59.8661 98.7202L89.7046 101.164C89.7046 101.164 91.513 100.046 90.9667 97.7307L90.9596 97.7276C90.9626 97.7286 90.9667 97.7297 90.9667 97.7297C90.931 97.2538 90.8993 96.7963 90.8687 96.3593C90.8299 95.768 89.8414 77.0153 89.8169 76.5129C89.7852 75.89 89.7679 75.3406 89.7628 74.8811C89.7617 74.7606 89.7607 74.6452 89.7617 74.5369C89.7628 74.5226 89.7628 74.5083 89.7628 74.4941C89.7628 74.4941 91.1526 71.4183 92.1737 68.8868Z" fill="#EA9800"/>
<path fill-rule="evenodd" clip-rule="evenodd" d="M56.4875 94.5797C56.4875 94.5797 57.0583 95.9134 55.9024 96.0676C55.0068 96.1871 54.5299 95.7204 54.5299 95.7204C54.5299 95.7204 54.6433 97.3032 52.8471 97.0142C51.7319 96.8345 47.1101 93.3533 45.3701 91.0792C43.63 88.8081 46.1707 83.7401 50.4851 83.8555C50.4851 83.8555 57.2023 84.7531 60.1045 87.4643C63.0066 90.1744 61.0848 91.7031 60.758 91.94C60.7008 91.9819 60.6508 92.0146 60.6028 92.0421C60.7305 92.4731 60.6753 93.0235 59.9156 93.4524C59.4346 93.722 59.1058 93.7352 58.8822 93.6464C58.6555 93.3063 58.4298 93.0643 58.4298 93.0643C58.4298 93.0643 58.5094 93.4973 58.8822 93.6464C59.2579 94.2121 59.0353 94.7125 58.4053 95.1751C57.6088 95.7582 56.4875 94.5797 56.4875 94.5797Z" fill="#EBBC8F"/>
<path fill-rule="evenodd" clip-rule="evenodd" d="M127.843 78.9864C126.502 80.2751 121.357 81.6863 119.97 82.4144C118.586 83.1374 113.508 83.8338 113.508 83.8338L111.339 79.4469C111.339 79.4469 111.168 78.3389 113.676 75.7309C116.178 73.1177 120.454 68.7533 121.37 69.1975C122.254 69.6294 120.175 73.3822 119.706 74.1644L119.66 74.2379C119.632 74.2829 119.658 74.291 119.737 74.2788C120.614 74.0878 128.02 70.0992 128.664 70.9253C128.856 71.1785 128.985 71.8311 129.035 72.6592C129.038 72.7154 129.041 72.7726 129.041 72.8349C129.069 73.4465 129.061 74.144 129.01 74.8455C129.01 74.9089 129.004 74.9671 128.995 75.0314C128.938 75.7309 128.84 76.4335 128.698 77.0553C128.679 77.1217 128.665 77.183 128.65 77.2443C128.458 78.0214 128.19 78.6576 127.843 78.9864Z" fill="#EBBC8F"/>
<path fill-rule="evenodd" clip-rule="evenodd" d="M117.533 78.8154L117.529 78.8123C117.491 78.7868 117.483 78.7347 117.509 78.6969C118.696 77.0447 119.575 74.2436 119.583 74.216C119.596 74.1721 119.643 74.1486 119.686 74.1619C119.729 74.1742 119.755 74.2222 119.741 74.2661C119.732 74.2936 118.846 77.1192 117.644 78.7939C117.618 78.8297 117.569 78.8378 117.533 78.8154Z" fill="#7362A5"/>
<path fill-rule="evenodd" clip-rule="evenodd" d="M129.041 72.8338L121.659 75.7911C121.633 75.7973 121.608 75.7973 121.586 75.784C121.569 75.7728 121.561 75.7605 121.552 75.7391C121.538 75.6992 121.557 75.6563 121.6 75.6369L129.035 72.6582C129.038 72.7154 129.041 72.7716 129.041 72.8338Z" fill="#7362A5"/>
<path fill-rule="evenodd" clip-rule="evenodd" d="M128.995 75.0296L122.53 77.4232C122.508 77.4334 122.479 77.4304 122.456 77.4161C122.445 77.4089 122.432 77.3926 122.424 77.3803C122.408 77.3313 122.427 77.2884 122.471 77.268L129.01 74.8438C129.01 74.9071 129.004 74.9663 128.995 75.0296Z" fill="#7362A5"/>
<path fill-rule="evenodd" clip-rule="evenodd" d="M128.65 77.2436L122.971 79.3564C122.943 79.3635 122.913 79.3605 122.897 79.3503C122.881 79.339 122.866 79.3227 122.863 79.3053C122.849 79.2645 122.865 79.2134 122.911 79.2022L128.698 77.0547C128.68 77.1211 128.666 77.1823 128.65 77.2436Z" fill="#7362A5"/>
<mask id="mask6" mask-type="alpha" maskUnits="userSpaceOnUse" x="115" y="65" width="23" height="19">
<path fill-rule="evenodd" clip-rule="evenodd" d="M115.806 65.1094H137.131V83.6555H115.806V65.1094Z" fill="white"/>
</mask>
<g mask="url(#mask6)">
<path fill-rule="evenodd" clip-rule="evenodd" d="M131.9 65.3459L136.949 70.6856C137.23 70.9838 137.181 71.4464 136.839 71.719L122.165 83.4614C121.823 83.7361 121.318 83.7167 121.037 83.4195L115.988 78.0788C115.708 77.7817 115.757 77.3191 116.098 77.0454L130.773 65.303C131.114 65.0283 131.62 65.0488 131.9 65.3459Z" fill="#5C616E"/>
</g>
<path fill-rule="evenodd" clip-rule="evenodd" d="M130.928 64.3143L135.976 69.655C136.257 69.9521 136.208 70.4147 135.866 70.6884L121.192 82.4308C120.85 82.7045 120.345 82.685 120.065 82.3879L115.015 77.0482C114.734 76.7511 114.784 76.2885 115.125 76.0148L129.8 64.2714C130.141 63.9977 130.647 64.0171 130.928 64.3143Z" fill="#A2A6B3"/>
<circle cx="119" cy="79" r="1" fill="#EBEBEB"/>
<path fill-rule="evenodd" clip-rule="evenodd" d="M129.565 65.5664L134.001 70.2597L122.042 79.8301L117.606 75.1368L129.565 65.5664Z" fill="#EBEBEB"/>
<path fill-rule="evenodd" clip-rule="evenodd" d="M134 70.2597L117.604 75.1368L129.564 65.5664L134 70.2597Z" fill="#EFF2F9"/>
<path fill-rule="evenodd" clip-rule="evenodd" d="M54.8128 60.9338C51.0896 63.3877 47.2705 65.6965 43.3676 67.8532C42.4587 68.3567 41.5009 68.8917 40.979 69.7893C39.5167 72.3014 44.1743 76.6761 45.5794 78.3906C46.185 79.1279 46.8028 79.8611 47.4298 80.5872C47.7432 80.9507 48.0588 81.3101 48.3754 81.6675L48.8502 82.1986L49.3056 82.7L49.3771 82.7796C51.3255 84.924 51.1662 88.2418 49.0207 90.1902C47.8934 91.2144 48.0802 93.1781 46.6435 92.4858C43.2665 89.0353 39.9742 85.4908 36.7892 81.8626C33.3019 77.8903 25.2235 70.5961 28.9691 64.899C30.168 63.0752 32.005 61.7834 33.7962 60.5366C40.2111 56.0761 46.6251 51.6146 53.04 47.1542C54.3737 46.2259 55.9136 45.2528 57.5046 45.5806C58.5033 45.7858 59.3345 46.4884 59.9595 47.2941C61.7394 49.5948 62.0355 52.9483 60.6845 55.5247C59.549 57.6885 57.4668 59.1692 55.4326 60.5233C55.2264 60.6601 55.0201 60.797 54.8128 60.9338Z" fill="#EBBC8F"/>
</svg>
