<svg width="180" height="180" viewBox="0 0 180 180" fill="none" xmlns="http://www.w3.org/2000/svg">
<circle cx="90" cy="90" r="90" fill="#F0F5EF"/>
<mask id="mask0" mask-type="alpha" maskUnits="userSpaceOnUse" x="0" y="0" width="180" height="180">
<circle cx="90" cy="90" r="90" fill="white"/>
</mask>
<g mask="url(#mask0)">
<path fill-rule="evenodd" clip-rule="evenodd" d="M116.765 117.455C116.765 117.455 110.991 130.17 104.228 169.408C97.4644 208.647 96.5559 235.014 96.5559 235.014H117.361L135.502 125.479L130.866 121.208L121.137 117.455H116.765Z" fill="#539553"/>
<mask id="mask1" mask-type="alpha" maskUnits="userSpaceOnUse" x="118" y="109" width="33" height="127">
<path fill-rule="evenodd" clip-rule="evenodd" d="M150.526 109.119H118.593V235.013H150.526V109.119Z" fill="white"/>
</mask>
<g mask="url(#mask1)">
<path fill-rule="evenodd" clip-rule="evenodd" d="M139.262 117.455C139.262 117.455 149.894 130.531 150.41 149.477C151.005 171.334 149.141 235.014 149.141 235.014L129.219 234.508L118.593 117.455H139.262Z" fill="#6AB36A"/>
</g>
<path fill-rule="evenodd" clip-rule="evenodd" d="M134.211 61.4375V61.4409C134.21 61.4409 134.208 61.4426 134.206 61.4426L134.211 61.4375Z" fill="#432C82"/>
<mask id="mask2" mask-type="alpha" maskUnits="userSpaceOnUse" x="113" y="37" width="37" height="31">
<path fill-rule="evenodd" clip-rule="evenodd" d="M150 37.3906H113.106V67.326H150V37.3906Z" fill="white"/>
</mask>
<g mask="url(#mask2)">
<path fill-rule="evenodd" clip-rule="evenodd" d="M147.195 61.9146C147.132 62.0246 147.074 62.1367 147.026 62.2519C146.893 62.4221 146.623 62.5036 146.566 62.7246C146.4 62.7172 146.3 62.8123 146.197 62.8969C145.147 63.7608 143.789 64.1213 142.415 64.4132C141.346 64.6405 141.323 64.5866 141.231 65.5107C141.19 65.9284 140.943 66.1272 140.432 66.1525C139.229 66.2107 138.24 65.829 137.37 65.1787C137.254 65.092 137.113 64.9101 136.974 65.0307C136.724 65.2485 136.36 65.2982 136.123 65.5625C133.726 68.2303 128.029 67.5588 125.334 65.6165C124.979 65.3606 124.593 65.0613 124.123 65.0793C123.787 65.0931 123.499 65.2696 123.197 65.3934C122.564 65.6535 121.801 65.6873 121.137 65.4853C120.829 65.3902 120.544 65.2485 120.237 65.1523C119.812 65.018 119.372 65.1153 118.938 65.1417C118.488 65.1692 118.248 65.0317 117.826 64.9133C117.621 64.8552 117.372 64.871 117.235 65.0328C117.168 65.111 117.133 65.2168 117.053 65.2802C116.973 65.3415 116.864 65.35 116.762 65.3458C116.181 65.3225 116.112 64.9715 115.662 64.7674C115.652 64.9958 115.671 65.1903 115.874 65.3447C115.696 65.83 115.462 65.9495 114.934 65.7825C114.472 65.6365 114.095 65.4103 113.804 65.0465C113.264 64.3751 113.112 63.6223 113.106 62.861C113.095 61.5847 113.562 60.4449 113.874 59.2363C114.2 57.9696 114.544 56.705 114.789 55.4181C115.043 54.0869 114.855 52.7874 114.884 51.4435C114.902 50.5965 115.001 49.7507 115.175 48.9206C115.388 47.9161 115.713 46.9349 116.149 46.0033C117.371 43.3959 119.454 41.1997 121.994 39.8421C123.05 39.2774 124.177 38.8545 125.312 38.4717C126.34 38.126 127.38 37.8077 128.448 37.6131C133.733 36.6467 138.603 38.9211 142.236 42.6399C143.024 43.4466 143.57 44.4162 144.209 45.3203C144.704 46.0181 145.25 46.6991 145.644 47.4361C146.35 48.7504 147.046 50.07 147.647 51.4224C148.299 52.8921 148.966 54.3544 149.396 55.8813C149.581 56.54 149.651 57.2167 149.79 57.8808C150.034 59.0396 150.122 60.1964 149.738 61.3235C149.579 61.793 149.35 62.2297 148.96 62.5459C148.798 62.678 148.162 63.0851 147.954 62.9318C147.788 62.8091 147.943 62.4126 147.96 62.2435C148.006 61.7719 147.998 61.3013 147.798 60.8625C147.415 61.8173 146.729 62.88 145.712 63.2173C145.735 63.193 145.758 63.1686 145.782 63.1443" fill="#2B2D4D"/>
</g>
<path fill-rule="evenodd" clip-rule="evenodd" d="M125.796 63.6914L126.01 71.8004C126.079 74.6479 127.871 76.1282 130.673 76.0383C133.066 75.9611 135.272 74.6532 135.492 72.2698L134.543 59.5254L125.796 63.6914Z" fill="#EBBC8F"/>
<path fill-rule="evenodd" clip-rule="evenodd" d="M125.93 67.6477C131.605 67.6534 135.208 60.2461 135.208 60.2461L125.76 62.368L125.93 67.6477Z" fill="#00023C" fill-opacity="0.18"/>
<path fill-rule="evenodd" clip-rule="evenodd" d="M129.665 63.7712C124.991 64.5315 120.543 61.4651 119.793 57.6691L118.079 48.7027C117.141 43.9456 119.545 39.3968 124.268 38.3013C129.104 37.1816 135.382 39.9011 136.503 44.7365L137.802 51.9636C138.808 57.5528 135.197 62.4886 129.665 63.7712Z" fill="#EBBC8F"/>
<path fill-rule="evenodd" clip-rule="evenodd" d="M112.415 49.1083C113.006 49.1781 113.533 49.0195 114.047 48.7752C114.192 48.7055 114.388 48.624 114.378 48.4485C114.367 48.2518 114.15 48.328 114.021 48.2931C112.998 48.0256 112.34 46.9132 112.71 46.0219C113.228 44.7773 113.953 43.7073 115.233 43.1088C115.624 42.9259 115.843 42.6362 115.656 42.1445C115.272 41.1358 115.338 40.1069 115.632 39.0908C115.858 38.3115 116.317 37.7014 117.163 37.5661C117.944 37.4403 118.639 37.7004 119.137 38.3348C119.367 38.6277 119.627 38.9026 119.727 39.3023C119.807 39.6216 120.024 39.7918 120.321 39.3985C122.328 36.736 126.482 35.9155 129.586 36.883C129.309 36.4336 129.089 36.0033 129.015 35.5084C128.841 34.358 128.92 33.2827 129.933 32.5076C130.616 31.9842 131.397 31.8975 132.242 31.9927C133.266 32.1069 134.107 32.5182 134.809 33.2626C135.376 33.8642 135.787 34.5684 136.172 35.2864C136.367 35.6491 137.816 34.7514 138.231 34.6224C139.183 34.3242 140.198 34.413 141.14 34.7112C142.608 35.1754 143.076 37.177 142.311 38.4511C141.683 39.4979 140.745 40.1344 139.666 40.6039C139.019 40.8862 138.988 40.8957 139.52 41.3927C141.657 43.3869 142.842 46.4871 141.352 49.2257C141.064 49.7575 140.676 50.2545 140.15 50.5548C139.531 50.909 138.787 50.9576 138.119 51.2072C137.241 51.536 136.904 52.1408 136.294 52.7636C135.469 53.6064 134.707 51.3975 134.288 50.743C133.386 49.3346 132.483 47.9251 131.581 46.5167C131.528 46.4332 131.473 46.3475 131.396 46.2841C131.123 46.0578 130.691 46.2037 130.452 46.4638C130.212 46.725 130.091 47.0718 129.889 47.3637C129.417 48.0499 128.57 48.3523 127.778 48.6145C127.454 48.7224 127.119 48.8302 126.78 48.7974C125.632 48.6843 126.308 47.2452 125.894 46.5008C125.816 46.3613 125.805 46.1678 125.604 46.1445C125.362 46.117 125.312 46.3264 125.239 46.4871C124.889 47.2579 124.647 48.0731 124.29 48.845C123.961 49.5535 123.54 50.4956 122.83 50.9005C121.937 51.4134 121.118 50.7134 120.268 51.6143C119.65 52.2698 119.63 53.2754 118.959 53.9172C118.288 54.559 117.369 54.521 116.559 54.0578C115.952 53.711 115.431 53.0724 115.245 52.3914C115.169 52.1091 114.981 50.374 115.172 50.2492C115.002 50.3613 114.898 50.4226 114.801 50.4945C113.929 51.1385 112.45 50.7705 111.98 49.7914C111.735 49.2849 111.873 49.0428 112.415 49.1083Z" fill="#2B2D4D"/>
<path fill-rule="evenodd" clip-rule="evenodd" d="M142.682 52.5637C143.142 54.5473 141.907 56.5267 139.925 56.9866C137.942 57.4455 135.963 56.2105 135.503 54.228C135.043 52.2454 136.278 50.266 138.26 49.8071C140.243 49.3472 142.223 50.5811 142.682 52.5637Z" fill="#EBBC8F"/>
<path fill-rule="evenodd" clip-rule="evenodd" d="M138.085 54.7497C138.085 54.7497 137.482 52.1475 140.065 51.9805Z" fill="#00023C" fill-opacity="0.18"/>
<path fill-rule="evenodd" clip-rule="evenodd" d="M125.258 54.9418C125.298 54.6626 125.409 54.375 125.546 54.0969C125.616 53.9574 125.701 53.821 125.896 53.8495C126.097 53.8781 126.179 54.0198 126.2 54.1963C126.216 54.3232 126.218 54.4607 126.189 54.5844C126.051 55.1945 126.031 55.8321 125.785 56.4189C125.715 56.5902 125.611 56.7097 125.412 56.679C125.188 56.642 125.082 56.475 125.077 56.273C125.062 55.8321 125.121 55.3964 125.258 54.9418Z" fill="#00023C" fill-opacity="0.18"/>
<path fill-rule="evenodd" clip-rule="evenodd" d="M129.361 49.4233C129.215 49.3387 129.029 49.2594 128.981 49.0521C128.936 48.8555 129.06 48.6958 129.197 48.5953C129.64 48.2718 130.158 48.1893 130.688 48.2517C130.994 48.2877 131.102 48.6398 130.916 48.8851C130.709 49.1579 129.711 49.511 129.361 49.4233Z" fill="#D3CCFB"/>
<path fill-rule="evenodd" clip-rule="evenodd" d="M120.219 49.6929C120.386 49.6453 120.567 49.6443 120.639 49.6348C121.197 49.6623 121.471 49.8494 121.448 50.1233C121.424 50.414 121.101 50.6223 120.697 50.6276C120.513 50.6297 120.349 50.5822 120.181 50.5177C119.988 50.4437 119.836 50.34 119.845 50.1159C119.856 49.8854 120.016 49.7511 120.219 49.6929Z" fill="#D3CCFB"/>
<path fill-rule="evenodd" clip-rule="evenodd" d="M125.919 59.6437C125.907 59.6395 125.896 59.6352 125.884 59.6321C125.719 59.5802 125.468 59.6289 125.447 59.3867C125.424 59.1309 125.688 59.1626 125.841 59.0907C126.784 59.1721 127.532 58.7872 128.162 58.1221C128.359 58.0566 128.537 57.7024 128.752 57.99C128.973 58.2818 128.587 58.3696 128.463 58.543C128.384 58.6529 128.225 58.6773 128.174 58.8168C127.49 59.2747 126.753 59.5919 125.919 59.6437Z" fill="#2B2D4D"/>
<path fill-rule="evenodd" clip-rule="evenodd" d="M124.864 52.0168L126.646 51.6763L126.547 51.1582L124.764 51.4987L124.864 52.0168Z" fill="white"/>
<path fill-rule="evenodd" clip-rule="evenodd" d="M134.358 51.5075L139.955 49.2405L139.756 48.752L134.161 51.0179L134.358 51.5075Z" fill="white"/>
<mask id="mask3" mask-type="alpha" maskUnits="userSpaceOnUse" x="126" y="47" width="9" height="9">
<path fill-rule="evenodd" clip-rule="evenodd" d="M134.399 47.3418H126.391V55.6703H134.399V47.3418Z" fill="white"/>
</mask>
<g mask="url(#mask3)">
<path fill-rule="evenodd" clip-rule="evenodd" d="M133.871 51.5015C133.874 53.5073 132.317 55.1409 130.401 55.1441H130.396C129.471 55.1441 128.601 54.7687 127.945 54.0857C127.285 53.4005 126.92 52.4859 126.919 51.5131C126.915 49.5073 128.472 47.8726 130.389 47.8684H130.395C132.309 47.8684 133.868 49.4967 133.871 51.5015ZM130.396 55.6707H130.402C132.609 55.6675 134.402 53.797 134.399 51.5015C134.395 49.2059 132.599 47.3418 130.395 47.3418H130.388C128.181 47.346 126.387 49.2176 126.391 51.5131C126.393 52.6233 126.809 53.667 127.565 54.4515C128.321 55.2382 129.327 55.6707 130.396 55.6707Z" fill="white"/>
</g>
<mask id="mask4" mask-type="alpha" maskUnits="userSpaceOnUse" x="117" y="48" width="9" height="9">
<path fill-rule="evenodd" clip-rule="evenodd" d="M125.229 48.8555H117.672V56.7128H125.229V48.8555Z" fill="white"/>
</mask>
<g mask="url(#mask4)">
<path fill-rule="evenodd" clip-rule="evenodd" d="M124.964 52.7783H124.7C124.703 54.6541 123.247 56.183 121.455 56.1862H121.449C119.66 56.1862 118.202 54.6625 118.199 52.7899C118.196 50.9131 119.652 49.3852 121.444 49.382H121.449C122.314 49.382 123.128 49.7331 123.741 50.3717C124.358 51.0136 124.7 51.869 124.7 52.7783H124.964ZM121.449 56.7128H121.456C123.539 56.7096 125.231 54.9448 125.229 52.7783C125.226 51.7305 124.833 50.746 124.12 50.0059C123.407 49.2636 122.458 48.8555 121.449 48.8555H121.443C119.36 48.8586 117.668 50.6234 117.672 52.7899C117.676 54.9544 119.37 56.7128 121.449 56.7128Z" fill="white"/>
</g>
<path fill-rule="evenodd" clip-rule="evenodd" d="M122.937 52.1035C122.866 52.0485 122.795 52.001 122.729 51.9629C122.381 51.762 121.957 51.7261 121.561 51.7916C121.101 51.8677 120.626 52.0877 120.265 52.3795C120.096 52.5148 119.939 52.7602 119.869 52.9621C119.781 53.2169 119.944 53.4379 120.239 53.3079C120.69 53.1091 120.915 52.5645 121.431 52.4334C121.934 52.3076 122.417 52.5434 122.819 52.8289C122.915 52.8976 123.021 52.9547 123.112 53.0298C123.411 53.2783 123.579 52.9336 123.472 52.6534C123.383 52.4207 123.116 52.242 122.937 52.1035Z" fill="#2B2D4D"/>
<path fill-rule="evenodd" clip-rule="evenodd" d="M131.688 50.807C131.596 50.7361 131.505 50.6737 131.419 50.624C130.97 50.3629 130.42 50.3174 129.907 50.402C129.312 50.5014 128.699 50.7848 128.229 51.1633C128.012 51.3378 127.807 51.656 127.717 51.9183C127.604 52.246 127.815 52.5326 128.197 52.3655C128.78 52.1086 129.071 51.4012 129.739 51.2341C130.389 51.0713 131.015 51.3748 131.536 51.7448C131.66 51.8337 131.797 51.9077 131.914 52.006C132.303 52.3275 132.52 51.8812 132.38 51.5175C132.265 51.2172 131.921 50.9857 131.688 50.807Z" fill="#2B2D4D"/>
<path fill-rule="evenodd" clip-rule="evenodd" d="M168.228 52.2363L180.386 41.9746L183.819 45.2797L171.515 58.9175L168.228 52.2363Z" fill="#EBBC8F"/>
<path fill-rule="evenodd" clip-rule="evenodd" d="M142.287 121.752C141.273 121.947 135.153 122.709 134.193 122.822C124.778 123.934 114.375 122.048 114.375 122.048C114.451 119.856 110.436 94.5789 111.431 88.4576C112.481 81.9826 120.853 68.5664 120.853 68.5664L125.461 68.7262C131.108 70.5886 136.307 68.6386 136.307 68.6386L140.599 68.7891C143.491 72.1796 144.949 74.7276 144.971 76.4331C145.096 85.9198 140.856 97.0387 140.599 103.913C140.436 108.25 140.999 114.197 142.287 121.752Z" fill="#EA9800"/>
<path fill-rule="evenodd" clip-rule="evenodd" d="M123.418 68.6348C123.418 68.6348 117.073 79.0222 119.581 81.4889C122.187 84.0505 126.974 82.1571 130.295 79.0594C133.614 75.9626 136.305 68.6348 136.305 68.6348H123.418Z" fill="#EBBC8F"/>
<path fill-rule="evenodd" clip-rule="evenodd" d="M91 35C91 35 94.2436 53.0027 99.4151 60.6306C104.588 68.2585 114 81 114 81L120.854 68.5689C120.854 68.5689 109.137 59.6303 107.453 55.9427C105.768 52.2571 96.2409 32.4824 96.2409 32.4824L91 35Z" fill="#EBBC8F"/>
<path fill-rule="evenodd" clip-rule="evenodd" d="M91.2564 35.0501L89.3043 25.8165L93.6519 23.9902L96.2402 32.4834L91.2564 35.0501Z" fill="#EBBC8F"/>
<path fill-rule="evenodd" clip-rule="evenodd" d="M85.0443 13.3644C84.8267 15.1659 86.7417 20.0044 86.9871 21.5131C87.2357 23.0156 87.9255 24.2809 88.8 25.374C89.6776 26.4753 89.6683 27.3838 89.6683 27.3838L94.3614 26.5021C94.3614 26.5021 95.3245 25.9865 95.8886 22.501C96.4578 19.0186 97.354 13.1272 96.4713 12.6725C95.6153 12.2363 93.9087 16.058 93.5735 16.8819L93.5436 16.9603C93.5251 17.0087 93.5034 16.9943 93.4673 16.9252C93.1012 16.1301 91.87 8.01651 90.847 8C90.5376 7.99897 89.9539 8.27947 89.2785 8.72702C89.2331 8.75692 89.1867 8.78889 89.1383 8.82498C88.6443 9.16116 88.106 9.57674 87.5883 10.0284C87.5399 10.0645 87.4966 10.1037 87.4522 10.1491C86.9407 10.6018 86.4499 11.0916 86.0487 11.567C86.0075 11.6196 85.9683 11.667 85.9291 11.7134C85.4362 12.3198 85.0969 12.9014 85.0443 13.3644Z" fill="#EBBC8F"/>
<path fill-rule="evenodd" clip-rule="evenodd" d="M91.222 21.3031C91.223 21.3042 91.224 21.3042 91.2261 21.3052C91.2684 21.3186 91.3137 21.2939 91.3282 21.2516C91.9201 19.3572 93.5886 17.0308 93.6051 17.0081C93.6309 16.972 93.6226 16.9215 93.5866 16.8967C93.5525 16.8699 93.501 16.8782 93.4741 16.9132C93.4566 16.938 91.7747 19.285 91.1735 21.2031C91.1601 21.2444 91.1817 21.2877 91.222 21.3031Z" fill="#F0F5EF"/>
<path fill-rule="evenodd" clip-rule="evenodd" d="M89.138 8.82453L91.1603 16.3132C91.1716 16.338 91.185 16.3576 91.2087 16.3658C91.2273 16.3731 91.2417 16.372 91.2644 16.3669C91.3036 16.3545 91.3263 16.3143 91.3149 16.2689L89.2793 8.72656C89.2329 8.7575 89.1865 8.78844 89.138 8.82453Z" fill="#F0F5EF"/>
<path fill-rule="evenodd" clip-rule="evenodd" d="M87.4521 10.1499L89.3764 16.593C89.3815 16.6167 89.4011 16.6373 89.4248 16.6466C89.4372 16.6508 89.4578 16.6518 89.4712 16.6508C89.5197 16.6343 89.5414 16.594 89.5321 16.5487L87.5882 10.0293C87.5398 10.0654 87.4965 10.1046 87.4521 10.1499Z" fill="#F0F5EF"/>
<path fill-rule="evenodd" clip-rule="evenodd" d="M85.9292 11.7139L87.6112 17.3815C87.6225 17.4072 87.6421 17.4279 87.6596 17.4351C87.6782 17.4423 87.6988 17.4433 87.7153 17.4351C87.7545 17.4227 87.7844 17.3794 87.7658 17.3371L86.0478 11.5664C86.0066 11.619 85.9684 11.6664 85.9292 11.7139Z" fill="#F0F5EF"/>
<path fill-rule="evenodd" clip-rule="evenodd" d="M140.525 68.902C140.525 68.902 140.391 69.0526 140.156 69.3269C137.882 71.9936 126.242 86.4637 136.73 91.5868C136.73 91.5868 142.262 83.4864 146.5 80.5C150.739 77.5136 175.722 57.6597 175.722 57.6597L172 49.5C172 49.5 150.256 66.1806 148.765 67.0819L140.525 68.902Z" fill="#EBBC8F"/>
<path fill-rule="evenodd" clip-rule="evenodd" d="M31.5329 201.687C30.1958 192.841 31.724 187.717 31.724 187.717C31.724 187.717 25.6122 153.88 25.8268 146.58C25.9829 141.275 27.5563 136.03 29.216 131.899L29.218 131.895C30.8161 127.918 32.4932 124.976 33.0663 124.012C33.0683 124.009 33.0704 124.007 33.0714 124.004C33.2008 123.787 33.2758 123.667 33.2758 123.667L32.904 118.887C34.5123 118.637 37.0213 119.554 37.0213 119.554C38.9511 118.221 41.7816 119.554 41.7816 119.554C44.611 118.305 46.9906 119.554 46.9906 119.554C49.8858 118.054 52.2018 119.554 52.2018 119.554C54.7097 118.804 57.0893 119.138 57.0893 119.138L56.4947 123.365C56.4947 123.365 70.0196 149.625 73.6008 158.739C77.182 167.853 81.7902 178.936 80.0484 187.476C78.3066 196.016 60.421 227.065 60.421 227.065L48.675 219.625C48.8187 213.199 52.2079 209.953 52.2079 209.953C52.6382 202.219 57.4129 197.771 57.4129 197.771C57.8915 188.877 62.1402 184.865 62.1402 184.865L50.6325 162.387L48.1502 189.843L45.4758 227.065H31.724C30.5778 221.651 31.8431 214.087 31.8431 214.087C29.8384 206.545 31.5329 201.687 31.5329 201.687Z" fill="#83952F"/>
<path fill-rule="evenodd" clip-rule="evenodd" d="M58.7166 49.5675C58.6432 49.1148 58.3304 48.7415 57.972 48.4674C56.4211 47.281 54.4553 47.1171 53.0484 45.6328C52.5996 45.1602 52.2194 44.6231 51.7448 44.1783C51.1352 43.6054 50.3856 43.2003 49.5992 42.9203C44.3668 41.0577 34.3142 45.5256 34.9208 51.9375C35.0389 53.1835 35.5274 54.3769 35.6039 55.6259C35.7032 57.2552 35.1005 58.9034 35.4341 60.5009C35.6088 61.3339 36.0288 62.0934 36.4438 62.839C37.2759 64.3353 39.0809 67.2553 40.7499 67.9652C40.876 68.0198 41.0199 68.0635 41.147 68.0108C41.2801 67.9552 41.3496 67.8113 41.4032 67.6772C42.2173 65.6052 41.0209 63.2779 40.4758 61.177C40.0271 59.4445 39.8682 58.0326 40.6496 56.4331C41.3436 55.0114 41.431 53.9788 41.572 52.3257C41.8192 49.4265 47.538 48.9936 48.929 50.1166C50.878 51.6912 51.849 50.75 53.0226 50.8513C53.667 50.9059 54.2438 51.4559 54.64 51.9444C54.4255 52.0516 55.1612 52.5232 55.1612 52.5232L54.9696 58.4913C57.5302 56.6545 56.0726 52.2621 56.0707 52.2532C57.277 51.6327 58.8983 50.6785 58.7166 49.5675Z" fill="#2B2D4D"/>
<path fill-rule="evenodd" clip-rule="evenodd" d="M49.5401 69.0642L49.3395 76.6784C49.274 79.3522 47.5921 80.7422 44.961 80.6578C42.7142 80.5853 40.6421 79.3572 40.4355 77.1193L41.3271 65.1523L49.5401 69.0642Z" fill="#EBBC8F"/>
<path fill-rule="evenodd" clip-rule="evenodd" d="M49.4159 72.7767C44.0873 72.7817 40.7046 66.4473 40.7046 66.4473L49.5758 68.2841L49.4159 72.7767Z" fill="#00023C" fill-opacity="0.18"/>
<path fill-rule="evenodd" clip-rule="evenodd" d="M47.2117 69.29C51.6577 69.3038 55.3293 65.802 55.4623 62.1711L55.7244 53.6037C55.8902 49.0525 52.9891 45.1913 48.4468 44.8745C43.7962 44.5509 38.3782 48.003 38.0535 52.6526L37.9185 59.546C37.8133 64.8777 41.8919 68.9196 47.2117 69.29Z" fill="#EBBC8F"/>
<path fill-rule="evenodd" clip-rule="evenodd" d="M33.7678 58.7146C33.6348 60.6209 35.0724 62.274 36.9797 62.406C38.886 62.5391 40.5391 61.1004 40.6712 59.1941C40.8042 57.2878 39.3665 55.6347 37.4593 55.5027C35.553 55.3696 33.8999 56.8073 33.7678 58.7146Z" fill="#EBBC8F"/>
<path fill-rule="evenodd" clip-rule="evenodd" d="M38.3547 60.0648C38.3547 60.0648 38.5285 57.5618 36.1089 57.7901L38.3547 60.0648Z" fill="#00023C" fill-opacity="0.18"/>
<path fill-rule="evenodd" clip-rule="evenodd" d="M56.6228 53.894C55.065 54.875 53.0336 54.1095 51.3894 53.2824C49.355 52.2598 47.3574 51.1617 45.4025 49.9941C45.7053 50.7497 46.0607 51.8269 45.5534 52.5745C45.0431 53.3271 43.807 53.4314 42.9918 53.4602C42.3336 53.482 41.5373 53.7084 41.3913 54.3508C41.3208 54.6635 41.436 54.9931 41.3913 55.3128C41.3476 55.6226 41.1421 55.9056 40.8611 56.0446C40.6467 56.1498 40.3905 56.1776 40.2068 56.3305C39.7005 56.7515 40.1215 57.8982 40.1522 58.4453C40.183 59.0122 40.1294 59.6536 39.6985 60.025C39.5972 59.6238 39.1554 59.4282 38.8744 59.1274C38.6431 58.8792 38.517 58.5515 38.4068 58.2318C38.1109 57.371 37.9282 56.4983 37.7366 55.6107C37.5738 54.8621 37.1449 54.3448 36.7855 53.6855C34.9636 50.3476 36.4955 46.7604 39.3738 44.6654C41.3913 43.196 43.9201 42.6102 46.4023 42.3471C47.9879 42.1803 49.6747 42.1505 51.0796 42.9071C52.01 43.4075 52.7347 44.2127 53.4387 45.002C54.4256 46.1071 55.4125 47.2131 56.3984 48.3182C57.0805 49.0807 57.7775 49.87 58.126 50.8331C58.4735 51.7961 58.395 52.9856 57.6613 53.7004C57.4409 53.9149 56.7509 54.174 56.6228 53.894Z" fill="#2B2D4D"/>
<path fill-rule="evenodd" clip-rule="evenodd" d="M50.0473 60.8534C50.0096 60.5913 49.9053 60.3213 49.7763 60.0601C49.7107 59.9291 49.6313 59.801 49.4476 59.8278C49.259 59.8546 49.1825 59.9877 49.1627 60.1535C49.1478 60.2726 49.1458 60.4017 49.1726 60.5178C49.3027 61.0907 49.3215 61.6894 49.5519 62.2404C49.6184 62.4013 49.7157 62.5135 49.9024 62.4847C50.1128 62.4499 50.2121 62.2931 50.2171 62.1034C50.231 61.6894 50.1754 61.2804 50.0473 60.8534Z" fill="#00023C" fill-opacity="0.18"/>
<path fill-rule="evenodd" clip-rule="evenodd" d="M49.4259 65.2626C49.4368 65.2586 49.4468 65.2546 49.4587 65.2517C49.6136 65.203 49.8489 65.2487 49.8687 65.0213C49.8906 64.781 49.6424 64.8108 49.4984 64.7433C48.6138 64.8198 47.9108 64.4584 47.3191 63.8339C47.1344 63.7723 46.9676 63.4397 46.7651 63.7098C46.5576 63.9838 46.9199 64.0662 47.0371 64.229C47.1106 64.3323 47.2605 64.3551 47.3082 64.4862C47.9505 64.9161 48.6426 65.2139 49.4259 65.2626Z" fill="#2B2D4D"/>
<path fill-rule="evenodd" clip-rule="evenodd" d="M52.226 58.1823C52.2926 58.1307 52.3591 58.086 52.4206 58.0502C52.7473 57.8616 53.1454 57.8278 53.5178 57.8894C53.9496 57.9609 54.3954 58.1674 54.735 58.4414C54.8929 58.5685 55.0408 58.7989 55.1063 58.9885C55.1887 59.2278 55.0358 59.4353 54.7588 59.3132C54.3359 59.1265 54.1244 58.6152 53.6399 58.4921C53.1673 58.3739 52.7135 58.5953 52.3362 58.8634C52.2459 58.9279 52.1466 58.9815 52.0612 59.052C51.7802 59.2854 51.6224 58.9617 51.7237 58.6986C51.8071 58.4801 52.0573 58.3124 52.226 58.1823Z" fill="#2B2D4D"/>
<path fill-rule="evenodd" clip-rule="evenodd" d="M44.0091 56.9674C44.0955 56.9009 44.1808 56.8423 44.2613 56.7956C44.6832 56.5504 45.1995 56.5077 45.6811 56.5871C46.24 56.6805 46.8159 56.9465 47.2567 57.302C47.4603 57.4658 47.6529 57.7647 47.7373 58.0109C47.8435 58.3187 47.6459 58.5877 47.2865 58.4309C46.7394 58.1896 46.4664 57.5254 45.8389 57.3685C45.2283 57.2156 44.6405 57.5006 44.152 57.8481C44.0349 57.9315 43.9068 58.001 43.7966 58.0933C43.4312 58.3951 43.2277 57.9761 43.3588 57.6346C43.467 57.3526 43.7897 57.1352 44.0091 56.9674Z" fill="#2B2D4D"/>
<path fill-rule="evenodd" clip-rule="evenodd" d="M43.3433 81.1978L51.0112 78.7663L51.2912 74.8753C50.3675 75.8521 48.3879 76.0589 45.3526 75.4957C42.3172 74.9324 39.4542 73.8271 36.7637 72.1797L43.3433 81.1978Z" fill="#EBBC8F"/>
<path fill-rule="evenodd" clip-rule="evenodd" d="M70.3877 104.815C70.4269 104.83 70.8579 104.893 71.6807 105.003C72.9138 105.169 74.2472 105.211 75.6332 105.161C77.0193 105.113 78.4559 104.974 79.9204 104.785C81.3859 104.594 82.8791 104.353 84.3932 104.089L84.4012 104.087C86.6351 103.698 88.7608 105.194 89.15 107.428C89.5203 109.556 88.1641 111.592 86.1029 112.113C84.5521 112.502 82.9724 112.879 81.3481 113.213C79.7228 113.546 78.0528 113.837 76.3143 114.028C74.5758 114.218 72.7649 114.311 70.8755 114.205C68.99 114.097 67.0152 113.781 65.0553 113.132C63.8013 112.717 62.8542 111.8 62.3617 110.678L62.2475 110.414L51.4105 85.4358C50.1922 82.628 51.481 79.3645 54.2888 78.1462C57.0966 76.929 60.3601 78.2177 61.5783 81.0245C61.6161 81.1129 61.6588 81.2191 61.6915 81.3075L70.3877 104.815Z" fill="#EBBC8F"/>
<path fill-rule="evenodd" clip-rule="evenodd" d="M63.3954 97.4951C64.3237 95.1967 63.0737 92.9697 62.1265 88.2069C61.9706 87.4276 61.8287 86.6343 61.7115 85.831C61.649 85.4041 61.6549 85.6722 61.6589 85.8092C61.6539 85.7536 61.644 85.699 61.64 85.6424C61.638 85.6186 61.6351 85.5927 61.6331 85.5689C61.6281 85.4935 61.6232 85.421 61.6182 85.3475C61.5993 85.0804 61.5824 84.8203 61.5666 84.5691C61.4554 82.8098 61.4037 81.4287 61.1069 80.2968C61.0225 79.9742 60.9172 79.6703 60.7862 79.3844C60.391 78.5266 59.7526 77.8246 58.6793 77.1961C58.024 76.8109 57.2079 76.4565 56.1863 76.107C55.7613 75.963 51.4017 74.5333 51.2915 74.8758C50.6779 76.7573 49.3216 78.4452 47.4888 79.1918C45.657 79.9394 43.3605 79.6108 41.9884 78.185C41.4095 77.5814 41.0154 76.8298 40.6301 76.0881C40.2737 75.404 39.9173 74.7209 39.5608 74.0359C39.257 73.4511 38.9294 72.8405 38.3823 72.4731C37.0757 71.5974 33.1917 72.9338 31.757 73.2148C31.3201 73.3002 30.8694 73.3925 30.4126 73.4888C29.2341 73.739 28.2651 74.1769 27.4797 74.7626C24.0752 77.3034 24.1328 82.637 25.64 87.6361C26.0659 89.0469 26.4601 90.5044 26.8145 91.9639C26.8642 92.1605 26.9118 92.3561 26.9575 92.5527C27.029 92.8545 27.0985 93.1554 27.168 93.4582C28.2244 98.1097 28.8876 102.646 28.9968 105.693C29.0713 107.739 29.8735 119.929 29.6253 122.497C29.5717 123.054 29.5101 123.623 29.4386 124.207L29.4396 124.206C29.4396 124.207 29.4386 124.207 29.4377 124.207C29.4377 124.207 29.3225 126.182 31.9833 126.501L61.2786 125.025C61.2786 125.025 63.037 123.938 62.5058 121.687C62.5058 121.687 62.4998 121.684 62.4989 121.684C62.5018 121.685 62.5048 121.686 62.5058 121.686C62.4711 121.223 62.4403 120.779 62.4105 120.354C62.3728 119.779 61.1277 105.398 61.1039 104.91C61.0731 104.304 61.0562 103.77 61.0513 103.323C61.0503 103.206 61.0493 103.094 61.0503 102.989C61.0513 102.975 61.0513 102.961 61.0513 102.947C61.0513 102.947 62.4025 99.9564 63.3954 97.4951Z" fill="#A0DCE0"/>
<path fill-rule="evenodd" clip-rule="evenodd" d="M28.6982 122.474C28.6982 122.474 29.2532 123.77 28.1293 123.92C27.2585 124.037 26.7949 123.583 26.7949 123.583C26.7949 123.583 26.9051 125.122 25.1586 124.841C24.0744 124.666 19.5807 121.281 17.8889 119.07C16.1971 116.862 18.6673 111.935 22.8621 112.047C22.8621 112.047 29.3932 112.92 32.2149 115.556C35.0366 118.191 33.168 119.677 32.8503 119.907C32.7947 119.948 32.746 119.98 32.6994 120.007C32.8235 120.426 32.7699 120.961 32.0312 121.378C31.5636 121.64 31.2439 121.653 31.0264 121.566C30.806 121.236 30.5866 121 30.5866 121C30.5866 121 30.664 121.421 31.0264 121.566C31.3918 122.116 31.1753 122.603 30.5628 123.053C29.7883 123.62 28.6982 122.474 28.6982 122.474Z" fill="#EBBC8F"/>
<path fill-rule="evenodd" clip-rule="evenodd" d="M98.0758 107.314C96.7722 108.567 91.7692 109.939 90.4209 110.647C89.0755 111.35 84.1381 112.027 84.1381 112.027L82.0292 107.762C82.0292 107.762 81.8634 106.684 84.3019 104.149C86.7344 101.608 90.8915 97.3643 91.7821 97.7962C92.6419 98.2162 90.6204 101.865 90.1647 102.625L90.12 102.697C90.0922 102.741 90.118 102.749 90.1945 102.737C91.0474 102.551 98.2476 98.6729 98.8741 99.4761C99.0607 99.7224 99.1858 100.357 99.2345 101.162C99.2374 101.217 99.2404 101.272 99.2404 101.333C99.2682 101.927 99.2603 102.606 99.2106 103.288C99.2106 103.349 99.2047 103.406 99.1957 103.468C99.1401 104.149 99.0448 104.832 98.9068 105.436C98.889 105.501 98.8751 105.56 98.8602 105.62C98.6735 106.375 98.4134 106.994 98.0758 107.314Z" fill="#EBBC8F"/>
<path fill-rule="evenodd" clip-rule="evenodd" d="M88.0511 107.149L88.0471 107.146C88.0104 107.121 88.0025 107.071 88.0283 107.034C89.182 105.428 90.0368 102.704 90.0448 102.677C90.0577 102.635 90.1034 102.612 90.1451 102.625C90.1868 102.637 90.2116 102.683 90.1987 102.726C90.1897 102.753 89.3279 105.5 88.1593 107.128C88.1345 107.163 88.0869 107.171 88.0511 107.149Z" fill="#B3B2E6"/>
<path fill-rule="evenodd" clip-rule="evenodd" d="M99.2407 101.333L92.0634 104.208C92.0375 104.214 92.0137 104.214 91.9919 104.201C91.976 104.19 91.968 104.178 91.9591 104.158C91.9452 104.119 91.9641 104.077 92.0058 104.058L99.2348 101.162C99.2378 101.218 99.2407 101.272 99.2407 101.333Z" fill="#B3B2E6"/>
<path fill-rule="evenodd" clip-rule="evenodd" d="M99.196 103.468L92.9102 105.795C92.8884 105.805 92.8605 105.802 92.8387 105.788C92.8278 105.781 92.8149 105.765 92.8069 105.753C92.792 105.706 92.8099 105.664 92.8526 105.644L99.2109 103.287C99.2109 103.349 99.2049 103.406 99.196 103.468Z" fill="#B3B2E6"/>
<path fill-rule="evenodd" clip-rule="evenodd" d="M98.8604 105.621L93.3381 107.675C93.3113 107.682 93.2825 107.679 93.2667 107.669C93.2508 107.659 93.2369 107.643 93.2339 107.626C93.22 107.586 93.2359 107.536 93.2805 107.525L98.9071 105.438C98.8892 105.502 98.8753 105.562 98.8604 105.621Z" fill="#B3B2E6"/>
<mask id="mask5" mask-type="alpha" maskUnits="userSpaceOnUse" x="86" y="93" width="22" height="19">
<path fill-rule="evenodd" clip-rule="evenodd" d="M86.3726 93.8203H107.106V111.852H86.3726V93.8203Z" fill="white"/>
</mask>
<g mask="url(#mask5)">
<path fill-rule="evenodd" clip-rule="evenodd" d="M102.021 94.0503L106.929 99.242C107.202 99.5319 107.155 99.9816 106.822 100.247L92.5548 111.664C92.2222 111.931 91.7318 111.912 91.4587 111.623L86.549 106.43C86.277 106.141 86.3246 105.692 86.6563 105.425L100.925 94.0086C101.256 93.7415 101.748 93.7614 102.021 94.0503Z" fill="#5C616E"/>
</g>
<path fill-rule="evenodd" clip-rule="evenodd" d="M101.074 93.0499L105.983 98.2426C106.256 98.5315 106.208 98.9812 105.876 99.2473L91.6085 110.664C91.2759 110.93 90.7854 110.911 90.5124 110.623L85.6027 105.431C85.3296 105.142 85.3783 104.692 85.7099 104.426L99.9783 93.0082C100.31 92.7421 100.801 92.761 101.074 93.0499Z" fill="#A1A6B2"/>
<circle cx="89" cy="107" r="1" fill="#EFF2F9"/>
<path fill-rule="evenodd" clip-rule="evenodd" d="M99.7494 94.2656L104.062 98.8288L92.435 108.134L88.1221 103.571L99.7494 94.2656Z" fill="#EBEBEB"/>
<path fill-rule="evenodd" clip-rule="evenodd" d="M104.063 98.8288L88.1216 103.571L99.7499 94.2656L104.063 98.8288Z" fill="#EFF2F9"/>
<path fill-rule="evenodd" clip-rule="evenodd" d="M27.0695 89.7622C23.4496 92.1481 19.7363 94.3929 15.9416 96.4899C15.0579 96.9793 14.1266 97.4996 13.6193 98.3723C12.1975 100.815 16.7259 105.068 18.0921 106.735C18.6809 107.452 19.2815 108.165 19.8911 108.871C20.196 109.224 20.5027 109.574 20.8105 109.921L21.2722 110.438L21.715 110.925L21.7845 111.002C23.6789 113.087 23.524 116.313 21.438 118.208C20.3419 119.203 20.5236 121.113 19.1266 120.44C15.8433 117.085 12.6423 113.639 9.54556 110.111C6.15495 106.249 -1.69956 99.1567 1.94225 93.6175C3.10786 91.8443 4.89402 90.5883 6.63549 89.376C12.8726 85.0392 19.1088 80.7014 25.3459 76.3646C26.6426 75.4621 28.1398 74.5159 29.6867 74.8346C30.6577 75.0342 31.4659 75.7173 32.0735 76.5006C33.8041 78.7375 34.092 81.9981 32.7785 84.5031C31.6744 86.6069 29.65 88.0466 27.6722 89.3631C27.4716 89.4962 27.2711 89.6292 27.0695 89.7622Z" fill="#EBBC8F"/>
</g>
</svg>
